<svg xmlns="http://www.w3.org/2000/svg" version="1.1" xmlns:xlink="http://www.w3.org/1999/xlink" xmlns:svgjs="http://svgjs.dev/svgjs" width="1500" height="1500" viewBox="0 0 1500 1500"><rect width="1500" height="1500" fill="#000000"></rect><g transform="matrix(0.6666666666666666,0,0,0.6666666666666666,249.78425655976667,249.78425655976673)"><svg viewBox="0 0 343 343" data-background-color="#ffffff" preserveAspectRatio="xMidYMid meet" height="1500" width="1500" xmlns="http://www.w3.org/2000/svg" xmlns:xlink="http://www.w3.org/1999/xlink"><g id="tight-bounds" transform="matrix(1,0,0,1,0.0740000000000407,0.07400000000001228)"><svg viewBox="0 0 342.85155851775386 342.85155851775386" height="342.85155851775386" width="342.85155851775386"><g><svg></svg></g><g><svg viewBox="0 0 342.85155851775386 342.85155851775386" height="342.85155851775386" width="342.85155851775386"><g><path d="M0 171.426c0-94.676 76.75-171.426 171.426-171.426 94.676 0 171.426 76.75 171.426 171.426 0 94.676-76.75 171.426-171.426 171.426-94.676 0-171.426-76.75-171.426-171.426zM171.426 337.827c91.901 0 166.402-74.501 166.401-166.401 0-91.901-74.501-166.402-166.401-166.402-91.901 0-166.402 74.501-166.402 166.402 0 91.901 74.501 166.402 166.402 166.401z" data-fill-palette-color="tertiary" fill="#ffffff" stroke="transparent"></path><ellipse rx="164.56874808852186" ry="164.56874808852186" cx="171.42577925887693" cy="171.42577925887693" fill="#ffffff" stroke="transparent" stroke-width="0" fill-opacity="1" data-fill-palette-color="tertiary"></ellipse></g><g transform="matrix(1,0,0,1,64.84655864529837,76.00963721406171)"><svg viewBox="0 0 213.1584412271571 190.83228408963043" height="190.83228408963043" width="213.1584412271571"><g><svg viewBox="0 0 213.1584412271571 190.83228408963043" height="190.83228408963043" width="213.1584412271571"><g><svg viewBox="0 0 213.1584412271571 190.83228408963043" height="190.83228408963043" width="213.1584412271571"><g transform="matrix(1,0,0,1,0,113.08173878140956)"><svg viewBox="0 0 213.1584412271571 77.7505453082209" height="77.7505453082209" width="213.1584412271571"><g id="textblocktransform"><svg viewBox="0 0 213.1584412271571 77.7505453082209" height="77.7505453082209" width="213.1584412271571" id="textblock"><g><svg viewBox="0 0 213.1584412271571 55.71118164728973" height="55.71118164728973" width="213.1584412271571"><g transform="matrix(1,0,0,1,0,0)"><svg width="213.1584412271571" viewBox="3.95 -36.3 177.14000000000001 46.3" height="55.71118164728973" data-palette-color="#ffffff"><path d="M23.2 0L3.95 0 3.95-34.1 23.05-34.1 23.05-30.95 7.7-30.95 7.7-19.05 19.7-19.05 19.7-16 7.7-16 7.7-3.1 23.2-3.1 23.2 0ZM38.45 0.8Q35.05 0.8 32.4-0.8 29.75-2.4 28.25-5.25 26.75-8.1 26.75-11.7L26.75-11.7Q26.75-15.3 28.22-18.15 29.7-21 32.35-22.6 35-24.2 38.35-24.2L38.35-24.2Q41.2-24.2 43.32-22.98 45.45-21.75 47.2-19.5L47.2-19.5 44.7-17.55Q42.25-21.1 38.35-21.1L38.35-21.1Q36-21.1 34.12-19.9 32.25-18.7 31.2-16.55 30.15-14.4 30.15-11.7L30.15-11.7Q30.15-9 31.2-6.85 32.25-4.7 34.12-3.5 36-2.3 38.35-2.3L38.35-2.3Q40.75-2.3 42.3-3.13 43.85-3.95 45.1-5.55L45.1-5.55 47.75-3.7Q46.1-1.65 43.67-0.43 41.25 0.8 38.45 0.8L38.45 0.8ZM63.3-24.2Q65.75-24.2 67.82-23.2 69.9-22.2 71.12-20.25 72.34-18.3 72.34-15.65L72.34-15.65 72.34 0 68.95 0 68.95-14.15Q68.95-21.1 62.75-21.1L62.75-21.1Q59.15-21.1 57.35-18.55 55.55-16 55.55-11.7L55.55-11.7 55.55 0 52.15 0 52.15-36.3 55.55-36.3 55.55-19.5Q56.75-21.75 58.72-22.98 60.7-24.2 63.3-24.2L63.3-24.2ZM97.19-23.4L100.59-23.4 100.59 0 97.19 0 97.19-3.45Q95.74-1.45 93.64-0.33 91.54 0.8 89.04 0.8L89.04 0.8Q85.69 0.8 83.04-0.8 80.39-2.4 78.89-5.25 77.39-8.1 77.39-11.75L77.39-11.75Q77.39-15.35 78.87-18.18 80.34-21 82.97-22.6 85.59-24.2 88.94-24.2L88.94-24.2Q91.49-24.2 93.62-23.08 95.74-21.95 97.19-19.9L97.19-19.9 97.19-23.4ZM88.94-2.3Q91.34-2.3 93.22-3.5 95.09-4.7 96.14-6.85 97.19-9 97.19-11.7L97.19-11.7Q97.19-14.4 96.14-16.55 95.09-18.7 93.22-19.9 91.34-21.1 88.94-21.1L88.94-21.1Q86.59-21.1 84.74-19.9 82.89-18.7 81.84-16.57 80.79-14.45 80.79-11.75L80.79-11.75Q80.79-9 81.84-6.85 82.89-4.7 84.74-3.5 86.59-2.3 88.94-2.3L88.94-2.3ZM118.04-24.2Q120.49-24.2 122.57-23.2 124.64-22.2 125.87-20.25 127.09-18.3 127.09-15.65L127.09-15.65 127.09 0 123.69 0 123.69-14.15Q123.69-21.1 117.49-21.1L117.49-21.1Q113.89-21.1 112.09-18.55 110.29-16 110.29-11.7L110.29-11.7 110.29 0 106.89 0 106.89-23.4 110.29-23.4 110.29-19.5Q111.49-21.75 113.47-22.98 115.44-24.2 118.04-24.2L118.04-24.2ZM152.09-23.4L155.49-23.4 155.49-0.9Q155.49 2.25 154.19 4.73 152.89 7.2 150.54 8.6 148.19 10 145.19 10L145.19 10 135.49 10 135.49 6.9 145.19 6.9Q148.24 6.9 150.16 4.7 152.09 2.5 152.09-0.9L152.09-0.9 152.09-3.45Q150.64-1.45 148.54-0.33 146.44 0.8 143.94 0.8L143.94 0.8Q140.59 0.8 137.94-0.8 135.29-2.4 133.79-5.25 132.29-8.1 132.29-11.75L132.29-11.75Q132.29-15.35 133.76-18.18 135.24-21 137.86-22.6 140.49-24.2 143.84-24.2L143.84-24.2Q146.39-24.2 148.51-23.08 150.64-21.95 152.09-19.9L152.09-19.9 152.09-23.4ZM143.84-2.3Q146.24-2.3 148.11-3.5 149.99-4.7 151.04-6.85 152.09-9 152.09-11.7L152.09-11.7Q152.09-14.4 151.04-16.55 149.99-18.7 148.11-19.9 146.24-21.1 143.84-21.1L143.84-21.1Q141.49-21.1 139.64-19.9 137.79-18.7 136.74-16.57 135.69-14.45 135.69-11.75L135.69-11.75Q135.69-9 136.74-6.85 137.79-4.7 139.64-3.5 141.49-2.3 143.84-2.3L143.84-2.3ZM170.44-4L177.89-23.4 181.09-23.4 168.44 10 165.04 10 168.74 0.45 159.14-23.4 162.69-23.4 170.44-4Z" opacity="1" transform="matrix(1,0,0,1,0,0)" fill="#000000" class="wordmark-text-0" data-fill-palette-color="quaternary" id="text-0"></path></svg></g></svg></g><g transform="matrix(1,0,0,1,0,68.8632545658553)"><svg viewBox="0 0 213.1584412271571 8.887290742365604" height="8.887290742365604" width="213.1584412271571"><g transform="matrix(1,0,0,1,0,0)"><svg width="213.1584412271571" viewBox="0 -35.8 858.59 35.8" height="8.887290742365604" data-palette-color="#ffffff"><path d="M44.3-2.15L49.15-2.15 49.15 0 38.4 0 38.4-27.3 26.2-3.05 22.9-3.05 10.75-27.3 10.75 0 0 0 0-2.15 4.85-2.15 4.85-34.95 14.05-34.95 24.6-13 35.15-34.95 44.3-34.95 44.3-2.15ZM85.3-2.15L91.1-2.15 91.1 0 79.95 0 76.45-7.95 58.95-7.95 55.45 0 44.3 0 44.3-2.15 50.1-2.15 64.55-34.95 70.85-34.95 85.3-2.15ZM61.35-13.4L74.05-13.4 67.7-27.8 61.35-13.4ZM104.3-2.15L116.45-2.15 116.45 0 86.25 0 86.25-2.15 98.4-2.15 98.4-29.55 87.8-29.55 87.8-34.95 114.9-34.95 114.9-29.55 104.3-29.55 104.3-2.15ZM116.44-2.15L121.29-2.15 121.29-34.95 145.84-34.95 145.84-29.4 127.19-29.4 127.19-20.15 143.94-20.15 143.94-14.9 127.19-14.9 127.19-5.55 146.44-5.55 146.44-2.15 151.29-2.15 151.29 0 116.44 0 116.44-2.15ZM181.94-2.15L186.79-2.15 186.79 0 175.99 0 167.64-11.75 159.89-11.75 159.89 0 149.14 0 149.14-2.15 153.99-2.15 153.99-34.95 166.99-34.95Q174.99-34.95 178.44-32.25 181.89-29.55 181.89-23.6L181.89-23.6Q181.89-14.95 174.34-12.7L174.34-12.7 181.94-2.15ZM167.24-17.1Q172.24-17.1 174.04-18.65 175.84-20.2 175.84-23.63 175.84-27.05 173.99-28.33 172.14-29.6 167.39-29.6L167.39-29.6 159.89-29.6 159.89-17.1 167.24-17.1ZM185.54-2.15L190.39-2.15 190.39-34.95 196.29-34.95 196.29-2.15 201.14-2.15 201.14 0 185.54 0 185.54-2.15ZM237.29-2.15L243.09-2.15 243.09 0 231.94 0 228.44-7.95 210.94-7.95 207.44 0 196.29 0 196.29-2.15 202.09-2.15 216.54-34.95 222.84-34.95 237.29-2.15ZM213.34-13.4L226.04-13.4 219.69-27.8 213.34-13.4ZM264.93-2.15L269.78-2.15 269.78 0 238.23 0 238.23-2.15 243.08-2.15 243.08-34.95 248.98-34.95 248.98-5.6 264.93-5.6 264.93-2.15ZM266.53-2.15L280.23-2.15 280.23 0 266.53 0 266.53-2.15ZM280.23-2.15L285.08-2.15 285.08-34.95 309.63-34.95 309.63-29.4 290.98-29.4 290.98-20.15 307.73-20.15 307.73-14.9 290.98-14.9 290.98-5.55 310.23-5.55 310.23-2.15 315.08-2.15 315.08 0 280.23 0 280.23-2.15ZM321.03 0L310.28 0 310.28-2.15 315.07-2.15 325.68-17.95 314.53-34.95 321.82-34.95 329.63-23.15 329.88-23.15 337.68-34.95 344.98-34.95 333.82-17.95 344.38-2.15 349.23-2.15 349.23 0 338.48 0 329.88-13.15 329.63-13.15 321.03 0ZM376.82-2.15L383.37-2.15 383.37 0 346.57 0 346.57-2.15 357.67-2.15Q353.72-4.5 351.45-8.55 349.17-12.6 349.17-17.7L349.17-17.7Q349.17-25.4 354.5-30.6 359.82-35.8 367.95-35.8 376.07-35.8 381.52-29.8L381.52-29.8 377.77-25.7Q375.27-28.1 373.05-29.05 370.82-30 367.82-30L367.82-30Q362.52-30 358.92-26.58 355.32-23.15 355.32-17.82 355.32-12.5 358.9-8.93 362.47-5.35 367.37-5.35L367.37-5.35Q370.42-5.35 372.62-6.38 374.82-7.4 377.22-9.65L377.22-9.65 381.02-5.75Q378.82-3.35 376.82-2.15L376.82-2.15ZM422.22 0L422.22-2.15 417.37-2.15 417.37-34.95 411.47-34.95 411.47-19.8 394.12-19.8 394.12-34.95 388.22-34.95 388.22 0 394.12 0 394.12-14.3 411.47-14.3 411.47 0 422.22 0ZM383.37-2.15L388.22-2.15 388.22 0 383.37 0 383.37-2.15ZM458.37-2.15L464.17-2.15 464.17 0 453.02 0 449.52-7.95 432.02-7.95 428.52 0 417.37 0 417.37-2.15 423.17-2.15 437.62-34.95 443.92-34.95 458.37-2.15ZM434.42-13.4L447.12-13.4 440.77-27.8 434.42-13.4ZM459.32-2.15L464.17-2.15 464.17-34.95 470.07-34.95 490.37-8.85 490.37-34.95 496.27-34.95 496.27-2.15 501.12-2.15 501.12 0 489.87 0 470.07-25.5 470.07 0 459.32 0 459.32-2.15ZM531.56-2.15L538.96-2.15 538.96 0 501.11 0 501.11-2.15 513.21-2.15Q508.86-4.35 506.29-8.6 503.71-12.85 503.71-18.2L503.71-18.2Q503.71-25.85 509.01-30.83 514.31-35.8 521.89-35.8 529.46-35.8 534.46-31.4L534.46-31.4 531.31-26.9Q529.26-28.65 527.19-29.33 525.11-30 522.36-30L522.36-30Q517.01-30 513.44-26.8 509.86-23.6 509.86-18.05 509.86-12.5 513.36-9.13 516.86-5.75 521.84-5.75 526.81-5.75 530.16-7.9L530.16-7.9 530.16-17.5 536.06-17.5 536.06-5.55Q534.21-3.5 531.56-2.15L531.56-2.15ZM538.96-2.15L543.81-2.15 543.81-34.95 568.36-34.95 568.36-29.4 549.71-29.4 549.71-20.15 566.46-20.15 566.46-14.9 549.71-14.9 549.71-5.55 568.96-5.55 568.96-2.15 573.81-2.15 573.81 0 538.96 0 538.96-2.15ZM571.66-2.15L585.36-2.15 585.36 0 571.66 0 571.66-2.15ZM585.36-2.15L590.21-2.15 590.21-34.95 596.11-34.95 616.4-8.85 616.4-34.95 622.31-34.95 622.31-2.15 627.15-2.15 627.15 0 615.9 0 596.11-25.5 596.11 0 585.36 0 585.36-2.15ZM627.15-2.15L632-2.15 632-34.95 656.55-34.95 656.55-29.4 637.9-29.4 637.9-20.15 654.65-20.15 654.65-14.9 637.9-14.9 637.9-5.55 657.15-5.55 657.15-2.15 662-2.15 662 0 627.15 0 627.15-2.15ZM677.9-2.15L690.05-2.15 690.05 0 659.85 0 659.85-2.15 672-2.15 672-29.55 661.4-29.55 661.4-34.95 688.5-34.95 688.5-29.55 677.9-29.55 677.9-2.15ZM730.4-2.15L742.45-2.15 742.45 0 723.8 0 716.45-23.95 716.05-23.95 708.7 0 690.05 0 690.05-2.15 702.1-2.15 690.65-34.95 697-34.95 705.8-9.8 713.6-34.95 718.9-34.95 726.7-9.8 735.5-34.95 741.85-34.95 730.4-2.15ZM772.99-2.15L784.44-2.15 784.44 0 742.44 0 742.44-2.15 753.89-2.15Q749.79-4.5 747.42-8.6 745.04-12.7 745.04-17.75L745.04-17.75Q745.04-25.45 750.34-30.63 755.64-35.8 763.44-35.8 771.24-35.8 776.54-30.63 781.84-25.45 781.84-17.75L781.84-17.75Q781.84-12.75 779.47-8.6 777.09-4.45 772.99-2.15L772.99-2.15ZM772.22-26.7Q768.64-30.4 763.44-30.4 758.24-30.4 754.67-26.7 751.09-23 751.09-17.73 751.09-12.45 754.67-8.75 758.24-5.05 763.44-5.05 768.64-5.05 772.22-8.75 775.79-12.45 775.79-17.73 775.79-23 772.22-26.7ZM817.24-2.15L822.09-2.15 822.09 0 811.29 0 802.94-11.75 795.19-11.75 795.19 0 784.44 0 784.44-2.15 789.29-2.15 789.29-34.95 802.29-34.95Q810.29-34.95 813.74-32.25 817.19-29.55 817.19-23.6L817.19-23.6Q817.19-14.95 809.64-12.7L809.64-12.7 817.24-2.15ZM802.54-17.1Q807.54-17.1 809.34-18.65 811.14-20.2 811.14-23.63 811.14-27.05 809.29-28.33 807.44-29.6 802.69-29.6L802.69-29.6 795.19-29.6 795.19-17.1 802.54-17.1ZM820.84-2.15L825.69-2.15 825.69-34.95 831.59-34.95 831.59-17.9 847.59-34.95 855.09-34.95 841.04-19.65 853.74-2.1 853.74-2.15 858.59-2.15 858.59 0 848.29 0 836.69-15.3 831.59-9.8 831.59 0 820.84 0 820.84-2.15Z" opacity="1" transform="matrix(1,0,0,1,0,0)" fill="#000000" class="slogan-text-1" data-fill-palette-color="quaternary" id="text-1"></path></svg></g></svg></g></svg></g></svg></g><g transform="matrix(1,0,0,1,62.18816774353198,0)"><svg viewBox="0 0 88.78210574009316 99.92966586284399" height="99.92966586284399" width="88.78210574009316"><g><svg xmlns="http://www.w3.org/2000/svg" xmlns:xlink="http://www.w3.org/1999/xlink" version="1.1" x="0" y="0" viewBox="15.060549017373644 10.673 69.87893837611608 78.65299999999999" style="enable-background:new 0 0 100 100;" xml:space="preserve" height="99.92966586284399" width="88.78210574009316" class="icon-icon-0" data-fill-palette-color="quaternary" id="icon-0"><g fill="#ffffff" data-fill-palette-color="quaternary"><path d="M75.33 27.958L54.345 10.673v9.874c-0.021 0-0.038 0-0.056 0-6.155 0.219-11.598 1.118-16.228 2.795-5.203 1.869-9.492 4.408-12.891 7.6-2.688 2.533-4.81 5.416-6.402 8.625-0.42 0.845-0.827 1.691-1.171 2.58-1.656 4.269-2.815 8.904-2.478 13.667 0.081 1.176 0.733 4.688 1.49 4.688 0 0 0.943-4.92 4.758-10.557 1.171-1.722 2.533-3.349 4.104-4.849l0.177 0.143V44.93c0.976-0.917 2.013-1.797 3.188-2.592 3.177-2.154 7.067-3.863 11.665-5.124 3.765-1.03 8.057-1.63 12.803-1.853h1.046l-0.006 9.877L75.33 27.958z" fill="#000000" data-fill-palette-color="quaternary"></path><path d="M24.671 72.041l20.984 17.285v-9.873c0.021 0 0.038 0 0.059 0 6.152-0.219 11.595-1.119 16.225-2.797 5.203-1.869 9.492-4.408 12.891-7.6 2.69-2.533 4.81-5.416 6.402-8.623 0.42-0.846 0.827-1.693 1.171-2.58 1.657-4.27 2.815-8.905 2.478-13.668-0.081-1.179-0.73-4.688-1.487-4.688 0 0-0.946 4.922-4.761 10.559-1.171 1.72-2.533 3.349-4.103 4.847l-0.175-0.143v0.309c-0.979 0.918-2.016 1.795-3.191 2.592-3.177 2.154-7.067 3.865-11.665 5.125-3.765 1.031-8.057 1.631-12.803 1.852h-1.046l0.006-9.877L24.671 72.041z" fill="#000000" data-fill-palette-color="quaternary"></path></g></svg></g></svg></g><g></g></svg></g></svg></g></svg></g></svg></g><defs></defs></svg><rect width="342.85155851775386" height="342.85155851775386" fill="none" stroke="none" visibility="hidden"></rect></g></svg></g></svg>