<?xml version="1.0" encoding="UTF-8" standalone="no"?>
<!DOCTYPE svg PUBLIC "-//W3C//DTD SVG 1.1//EN" "http://www.w3.org/Graphics/SVG/1.1/DTD/svg11.dtd">
<svg xmlns="http://www.w3.org/2000/svg" version="1.1" viewBox="0.00 0.00 1780.00 1177.00">
<path fill="#6983f4" d="
  M 678.87 337.75
  C 678.47 337.11 678.24 335.91 678.28 335.05
  C 678.79 322.98 678.28 310.90 679.31 298.87
  C 679.71 294.25 679.38 289.61 679.84 285.06
  C 680.45 279.13 680.26 272.91 680.84 267.33
  Q 682.09 255.18 682.77 242.98
  C 683.00 238.93 683.68 234.78 684.06 230.62
  Q 685.54 214.39 687.76 198.25
  Q 692.28 165.33 701.72 133.55
  C 706.92 116.02 712.84 99.81 722.81 85.58
  C 733.06 70.94 745.98 58.43 763.10 53.96
  C 769.09 52.40 775.63 52.81 782.01 52.79
  Q 785.60 52.78 793.76 55.28
  C 806.72 59.24 818.62 67.95 829.12 78.00
  Q 856.21 103.94 874.92 137.52
  Q 917.67 214.19 942.01 297.25
  Q 942.38 298.50 942.19 300.79
  Q 942.15 301.28 941.66 301.33
  Q 939.09 301.57 937.72 301.13
  Q 911.46 292.74 884.17 288.97
  C 880.03 288.40 878.25 286.61 877.28 282.76
  C 863.36 227.72 844.55 175.74 816.61 127.44
  C 808.10 112.72 794.84 97.36 779.26 89.92
  C 772.15 86.53 766.66 88.88 760.50 93.66
  C 743.89 106.56 736.20 124.12 728.38 143.06
  Q 716.18 172.62 709.70 203.94
  C 701.09 245.53 694.71 287.20 691.75 329.61
  Q 691.72 330.09 691.42 330.48
  C 689.27 333.28 681.55 342.07 678.87 337.75
  Z"
/>
<path fill="#6983f4" d="
  M 851.80 424.92
  C 879.56 425.86 906.30 436.38 927.93 453.70
  C 948.45 470.13 964.97 491.30 975.95 515.26
  C 978.29 520.38 979.70 523.21 980.57 527.55
  A 1.84 1.84 0.0 0 1 979.01 529.74
  C 968.36 531.19 957.26 531.12 948.00 530.56
  C 941.55 530.18 936.50 528.04 930.63 524.13
  C 906.41 507.98 878.93 496.74 849.42 496.63
  C 842.69 496.61 835.60 496.44 829.20 497.23
  C 802.95 500.47 777.74 511.82 756.86 527.90
  C 753.44 530.54 751.16 530.26 747.00 530.33
  Q 725.11 530.67 714.50 530.49
  C 709.44 530.41 712.11 524.17 713.23 521.73
  Q 725.55 494.96 743.01 474.27
  Q 746.53 470.10 755.93 461.34
  C 777.48 441.25 803.46 429.12 832.86 425.33
  Q 839.27 424.50 851.80 424.92
  Z"
/>
<path fill="#6983f4" d="
  M 746.58 728.66
  Q 751.39 735.99 764.95 752.88
  Q 765.26 753.26 765.30 753.64
  Q 765.36 754.19 765.13 754.52
  Q 764.76 755.03 764.25 754.66
  C 718.54 721.59 696.84 658.58 697.69 604.26
  Q 697.71 603.18 698.77 603.00
  Q 700.63 602.69 703.00 602.69
  Q 913.03 602.80 1123.07 602.75
  C 1128.13 602.75 1131.69 602.15 1131.66 608.23
  Q 1131.44 648.78 1131.72 668.49
  Q 1131.76 671.47 1131.44 673.36
  Q 1131.34 673.91 1130.80 673.98
  Q 1129.22 674.19 1127.75 674.19
  Q 1072.22 674.18 1016.69 674.17
  C 1009.92 674.16 1010.96 681.53 1011.45 686.27
  Q 1012.05 691.99 1012.10 694.76
  Q 1012.65 724.14 1013.20 734.37
  C 1013.76 744.78 1013.78 754.36 1014.32 764.19
  C 1014.68 770.67 1014.07 777.61 1015.34 783.95
  C 1015.80 786.25 1015.25 788.60 1015.24 790.34
  Q 1015.10 815.87 1014.59 841.39
  C 1014.48 846.97 1013.60 854.26 1013.74 860.82
  Q 1013.80 863.55 1013.24 867.65
  C 1012.78 871.04 1013.11 874.47 1012.67 877.76
  C 1012.04 882.54 1012.16 887.70 1011.67 892.04
  Q 1010.10 906.04 1009.95 909.89
  Q 1009.69 916.59 1008.57 923.21
  Q 1008.22 925.25 1008.05 928.85
  C 1007.92 931.42 1007.27 934.30 1007.02 936.39
  Q 1002.53 973.75 995.12 1010.64
  Q 995.07 1010.87 994.78 1014.38
  C 994.63 1016.17 993.71 1017.69 993.39 1019.30
  C 986.26 1054.24 974.83 1088.70 956.26 1119.30
  C 947.96 1132.97 935.64 1148.14 921.25 1155.26
  Q 919.13 1156.32 916.54 1156.32
  C 901.24 1156.31 885.81 1156.71 870.55 1156.03
  Q 869.96 1156.01 869.42 1155.75
  Q 858.23 1150.36 848.96 1141.28
  Q 829.85 1122.57 816.83 1099.97
  Q 798.23 1067.69 786.56 1037.82
  Q 769.51 994.21 756.31 944.50
  Q 755.31 940.76 757.62 938.95
  A 1.23 1.22 32.0 0 1 758.63 938.72
  Q 767.42 940.56 769.75 941.68
  C 771.63 942.58 772.10 944.60 772.77 946.49
  Q 795.08 1008.86 829.45 1067.31
  Q 845.48 1094.59 867.62 1115.63
  Q 871.57 1119.38 882.10 1124.21
  C 897.01 1131.05 907.25 1121.66 914.86 1109.81
  C 930.24 1085.85 936.46 1058.38 941.59 1030.86
  Q 943.48 1020.75 943.71 1016.99
  Q 943.96 1012.84 944.47 1010.06
  Q 945.33 1005.44 945.34 1005.40
  Q 951.00 963.37 952.68 921.00
  Q 952.87 916.21 952.71 911.86
  A 1.97 1.96 -11.1 0 0 950.07 910.09
  Q 915.14 922.87 877.73 927.26
  Q 860.80 929.25 838.24 928.64
  C 750.05 926.26 670.18 884.19 617.30 814.16
  C 583.43 769.30 565.62 714.70 561.75 659.50
  Q 559.56 628.22 561.62 595.47
  Q 561.63 595.24 561.73 595.05
  Q 561.89 594.74 561.94 594.65
  A 0.43 0.43 0.0 0 1 562.73 594.85
  Q 564.75 618.73 570.51 642.03
  Q 586.79 707.90 631.54 758.70
  Q 638.22 766.29 653.57 780.80
  C 715.79 839.64 807.31 868.31 891.87 853.04
  Q 922.88 847.44 950.57 837.07
  C 952.29 836.43 953.31 834.56 953.30 832.62
  Q 953.26 826.89 953.26 821.16
  C 953.26 816.72 952.54 809.71 952.70 803.94
  C 952.85 798.68 952.07 793.73 951.98 788.55
  Q 951.92 785.49 951.45 781.50
  C 950.88 776.67 951.21 772.12 950.58 767.11
  C 950.10 763.39 950.31 759.02 950.14 755.96
  C 949.49 744.88 949.01 733.80 947.93 722.76
  C 947.58 719.23 947.91 715.28 947.68 712.08
  Q 946.69 697.99 946.04 683.88
  Q 945.87 680.00 945.51 677.62
  Q 945.00 674.30 941.64 674.30
  Q 833.61 674.33 726.00 674.24
  Q 724.24 674.23 722.96 675.40
  A 1.41 1.36 75.5 0 0 722.52 676.18
  C 720.93 684.30 727.13 696.43 731.43 703.81
  Q 740.55 719.48 746.58 728.66
  Z"
/>
<path fill="#6983f4" d="
  M 1102.51 770.92
  Q 1078.07 817.79 1039.04 853.91
  A 1.27 1.27 0.0 0 1 1036.97 853.35
  C 1036.37 851.41 1036.67 849.01 1036.71 847.10
  Q 1037.37 815.68 1037.93 785.13
  A 5.06 5.04 67.5 0 1 1039.33 781.74
  Q 1055.40 765.01 1070.89 747.90
  Q 1072.26 746.40 1074.75 746.36
  Q 1092.12 746.13 1110.04 746.26
  A 1.49 1.48 3.6 0 1 1111.51 747.92
  C 1110.67 755.15 1105.89 764.43 1102.51 770.92
  Z"
/>
<path fill="#6983f4" d="
  M 1408.15 1177.00
  L 1391.99 1177.00
  C 1391.97 1175.99 1392.96 1175.41 1393.93 1175.40
  Q 1400.96 1175.32 1408.02 1175.40
  A 0.61 0.61 0.0 0 1 1408.62 1176.01
  Q 1408.62 1176.48 1408.15 1177.00
  Z"
/>
<path fill="#6983f4" d="
  M 1223.62 1177.00
  L 1209.88 1177.00
  L 1209.68 1176.80
  A 0.40 0.40 0.0 0 1 1209.96 1176.11
  L 1224.04 1176.11
  A 0.33 0.33 0.0 0 1 1224.18 1176.74
  L 1223.62 1177.00
  Z"
/>
<path fill="#6983f4" d="
  M 1337.22 1177.00
  L 1322.00 1177.00
  Q 1321.74 1176.60 1321.82 1176.36
  Q 1321.88 1176.17 1322.28 1176.13
  Q 1329.51 1175.56 1337.22 1177.00
  Z"
/>
</svg>
