<?xml version="1.0" encoding="UTF-8" standalone="no"?>
<!DOCTYPE svg PUBLIC "-//W3C//DTD SVG 1.1//EN" "http://www.w3.org/Graphics/SVG/1.1/DTD/svg11.dtd">
<svg xmlns="http://www.w3.org/2000/svg" version="1.1" viewBox="0.00 0.00 1448.00 1448.00">
<g stroke-width="2.00" fill="none" stroke-linecap="butt">
<path stroke="#b2c0f7" vector-effect="non-scaling-stroke" d="
  M 538.28 99.09
  Q 529.08 123.75 523.46 147.00
  Q 521.32 155.88 520.05 160.88
  C 518.56 166.79 517.50 172.94 516.08 178.95
  C 515.60 180.96 515.68 183.60 514.57 185.84
  Q 514.33 186.32 514.43 186.85
  Q 514.92 189.56 513.53 191.85
  Q 513.26 192.29 513.35 192.79
  Q 513.83 195.59 512.40 197.99
  A 1.50 1.47 56.5 0 0 512.20 199.01
  Q 512.67 201.99 511.30 204.60
  A 1.87 1.85 -33.8 0 0 511.09 205.64
  Q 511.45 209.33 510.02 212.73
  A 1.87 1.78 -39.7 0 0 509.90 213.75
  Q 510.52 217.46 508.95 220.78
  A 1.73 1.71 -37.5 0 0 508.81 221.80
  C 509.38 225.43 507.81 228.00 507.76 231.21
  C 507.72 234.12 507.74 236.10 506.96 239.20
  Q 506.12 242.60 506.59 246.19
  A 1.35 1.31 57.8 0 1 506.40 247.09
  C 504.59 250.06 505.69 255.28 505.05 258.76
  C 504.36 262.52 504.56 265.93 503.80 269.48
  C 502.77 274.28 503.57 278.90 502.77 283.77
  C 501.91 288.97 502.42 293.81 501.40 298.98
  C 500.57 303.18 501.30 307.19 500.50 311.42
  Q 499.78 315.23 499.83 317.63
  C 499.92 322.70 500.08 327.02 499.31 332.41
  Q 498.20 340.19 498.89 348.75
  C 499.20 352.48 497.57 355.94 497.59 359.47
  C 497.67 371.36 498.16 383.49 497.20 395.34
  Q 496.73 401.13 497.12 404.61
  C 497.70 409.76 503.27 407.87 505.69 405.69
  Q 510.20 401.65 514.39 397.27
  C 516.36 395.22 515.62 393.21 515.79 390.98
  Q 516.48 382.06 517.18 373.15
  Q 517.94 363.54 518.84 355.36
  Q 527.67 274.98 544.58 203.61
  Q 551.80 173.14 565.57 139.96
  Q 570.55 127.95 573.43 121.57
  C 580.34 106.22 588.04 92.83 599.85 81.20
  Q 606.96 74.19 610.52 71.73
  C 616.08 67.89 624.28 63.82 631.24 66.63
  Q 645.64 72.43 656.90 83.10
  Q 667.98 93.59 672.90 100.11
  Q 680.99 110.83 690.49 127.64
  C 694.68 135.06 699.44 144.74 704.05 153.23
  C 707.14 158.92 709.67 165.08 712.58 171.01
  Q 717.24 180.51 718.94 184.36
  Q 735.28 221.53 747.86 260.16
  Q 759.64 296.36 769.01 333.26
  Q 769.83 336.51 773.23 338.31
  C 775.82 339.69 778.97 339.04 782.07 340.33
  A 1.75 1.68 -38.0 0 0 783.03 340.43
  Q 785.08 340.05 786.96 340.53
  Q 790.65 341.48 791.19 341.55
  Q 795.07 342.05 802.02 343.46
  Q 824.17 347.95 839.04 352.38
  Q 841.09 352.99 843.14 353.51
  C 847.10 354.51 850.53 356.29 854.74 356.69
  Q 857.30 356.93 857.36 354.74
  Q 857.46 351.46 854.78 342.70
  Q 848.61 322.58 841.52 302.77
  Q 838.57 294.52 834.73 283.98
  Q 808.07 210.84 770.87 142.47
  C 749.71 103.57 724.20 68.57 691.82 41.45
  Q 677.29 29.28 657.93 21.69
  C 654.95 20.52 651.34 19.67 648.11 18.69
  C 646.66 18.25 645.10 18.50 643.59 18.06
  Q 641.45 17.44 640.31 17.45
  Q 631.91 17.52 623.50 17.53
  Q 617.55 17.54 613.13 18.67
  Q 601.75 21.58 591.75 27.63
  C 583.38 32.69 574.20 41.38 567.78 48.77
  Q 548.99 70.37 538.28 99.09"
/>
<path stroke="#b2c0f7" vector-effect="non-scaling-stroke" d="
  M 603.76 480.44
  C 593.50 490.36 583.29 500.12 575.38 510.36
  Q 559.92 530.40 546.76 556.58
  Q 542.62 564.81 540.90 570.48
  Q 539.54 574.98 542.62 576.67
  Q 544.13 577.50 547.98 577.50
  C 564.84 577.47 581.88 577.76 598.68 576.37
  Q 599.18 576.33 599.57 576.02
  Q 624.67 556.20 653.01 544.59
  Q 677.24 534.66 704.21 531.51
  C 711.94 530.61 720.36 530.85 728.42 530.88
  C 769.69 531.08 809.86 547.73 843.25 571.28
  Q 847.36 574.17 856.04 576.25
  C 857.23 576.53 858.65 576.32 859.93 576.75
  Q 861.80 577.37 862.69 577.41
  Q 880.38 578.03 898.07 577.39
  Q 899.24 577.35 901.09 576.86
  C 903.88 576.11 907.19 577.28 907.94 573.25
  Q 908.04 572.73 907.80 572.26
  C 906.86 570.44 906.74 568.47 906.05 566.80
  Q 893.02 535.00 874.46 511.25
  Q 859.21 491.73 836.79 472.83
  C 830.76 467.74 823.92 463.66 817.17 459.42
  Q 791.05 443.05 761.00 436.35
  C 757.55 435.58 753.54 435.07 749.81 434.41
  Q 745.57 433.65 741.36 433.49
  C 735.50 433.26 729.45 432.63 723.87 432.79
  Q 712.13 433.13 700.45 434.40
  C 697.89 434.68 694.70 435.83 691.50 435.70
  Q 691.23 435.69 691.02 435.79
  C 690.56 436.00 690.36 436.23 689.87 436.33
  Q 649.22 445.02 615.23 470.75
  Q 608.56 475.81 603.76 480.44"
/>
<path stroke="#b2c0f7" vector-effect="non-scaling-stroke" d="
  M 869.38 1096.39
  C 870.26 1098.06 869.73 1099.66 869.77 1101.03
  C 870.02 1110.85 868.57 1119.30 868.57 1130.31
  Q 868.57 1133.67 867.90 1139.13
  C 867.26 1144.31 867.77 1149.18 866.85 1154.44
  C 866.03 1159.14 866.56 1163.72 865.79 1168.42
  Q 865.19 1172.07 865.17 1175.77
  C 865.14 1179.89 863.91 1183.86 864.12 1188.15
  C 864.22 1190.41 863.42 1192.25 863.26 1194.50
  Q 862.62 1203.15 860.85 1211.65
  C 860.44 1213.58 860.51 1215.25 860.53 1217.18
  C 860.55 1219.90 859.67 1222.39 859.54 1225.25
  C 859.35 1229.60 857.30 1233.30 857.52 1237.67
  Q 857.71 1241.41 856.72 1245.01
  C 856.15 1247.10 856.47 1249.03 855.95 1251.10
  Q 855.14 1254.33 855.00 1255.53
  Q 854.58 1259.10 853.40 1265.41
  Q 849.58 1286.01 846.56 1297.50
  Q 845.66 1300.94 844.99 1302.30
  Q 844.77 1302.73 844.85 1303.22
  Q 844.89 1303.54 844.84 1303.74
  Q 837.65 1331.57 824.21 1356.90
  Q 822.40 1360.31 820.00 1363.94
  C 814.55 1372.14 809.44 1380.14 801.40 1385.65
  C 786.51 1395.84 771.16 1387.23 758.56 1378.68
  Q 754.74 1376.09 751.54 1373.09
  C 732.36 1355.14 716.14 1334.00 702.64 1311.14
  Q 656.20 1232.57 625.13 1146.63
  C 623.26 1141.45 623.27 1138.68 617.02 1137.03
  Q 612.12 1135.74 607.27 1134.22
  C 600.79 1132.18 601.24 1139.67 602.13 1143.79
  Q 603.48 1150.07 605.39 1156.18
  Q 608.54 1166.24 609.15 1168.42
  Q 627.60 1234.37 654.39 1296.09
  Q 668.75 1329.17 688.21 1360.51
  Q 693.34 1368.76 699.35 1377.11
  Q 707.92 1389.00 713.52 1395.50
  Q 720.94 1404.11 733.48 1415.31
  Q 737.74 1419.12 742.38 1422.25
  C 746.81 1425.26 753.68 1430.68 758.86 1430.62
  Q 790.81 1430.22 822.75 1430.40
  Q 825.05 1430.41 827.00 1429.38
  Q 837.20 1423.99 845.04 1416.80
  Q 853.49 1409.05 861.88 1398.93
  C 864.20 1396.13 866.31 1392.75 868.60 1389.67
  Q 871.83 1385.33 873.50 1382.62
  Q 888.14 1358.95 898.58 1333.10
  Q 908.50 1308.52 915.50 1282.97
  Q 917.78 1274.63 920.08 1266.29
  Q 920.49 1264.80 920.87 1263.29
  Q 923.04 1254.87 924.67 1246.30
  C 925.21 1243.50 926.52 1240.30 926.86 1237.13
  Q 927.42 1231.87 927.74 1230.46
  Q 928.95 1225.19 930.14 1219.91
  C 930.62 1217.81 930.12 1215.47 931.38 1213.21
  A 1.57 1.54 -33.8 0 0 931.58 1212.25
  Q 931.29 1209.57 932.65 1207.32
  A 1.17 1.15 -36.1 0 0 932.79 1206.47
  Q 932.24 1203.92 933.54 1201.77
  A 1.52 1.49 58.0 0 0 933.75 1200.81
  C 933.31 1197.02 934.86 1194.45 934.93 1190.84
  C 934.97 1188.69 936.00 1186.74 936.08 1184.42
  C 936.14 1182.83 936.77 1181.82 937.36 1180.43
  A 1.68 1.62 52.1 0 0 937.46 1179.49
  Q 936.79 1175.86 938.42 1172.68
  Q 938.67 1172.19 938.56 1171.65
  Q 937.85 1168.28 939.46 1165.29
  A 1.59 1.55 -36.2 0 0 939.63 1164.28
  Q 938.96 1160.56 940.57 1157.26
  Q 940.81 1156.77 940.70 1156.24
  Q 940.02 1152.95 941.61 1150.15
  A 1.53 1.53 0.0 0 0 941.80 1149.10
  Q 941.34 1146.43 942.07 1143.89
  C 943.10 1140.28 942.44 1137.25 943.38 1133.66
  C 944.20 1130.49 943.30 1127.96 945.03 1124.81
  Q 945.28 1124.36 945.26 1123.85
  Q 945.04 1115.04 946.62 1106.36
  C 947.49 1101.59 946.72 1097.01 948.03 1092.10
  C 948.93 1088.70 948.09 1085.54 948.93 1082.13
  C 949.95 1078.00 949.17 1074.21 950.06 1070.10
  C 951.26 1064.55 950.36 1058.89 951.14 1053.19
  C 951.83 1048.14 951.74 1044.07 951.80 1039.31
  C 951.83 1037.33 953.02 1035.55 953.08 1033.75
  Q 953.24 1028.89 952.95 1017.41
  C 952.83 1012.92 954.38 1008.63 954.26 1004.13
  Q 953.89 990.30 954.54 976.49
  Q 955.12 964.10 955.11 956.50
  Q 955.08 936.90 955.34 924.37
  Q 955.39 922.38 954.57 920.95
  Q 954.32 920.50 954.31 919.99
  C 954.17 911.27 954.28 903.37 953.53 894.02
  C 952.65 883.00 953.58 871.80 952.60 860.56
  Q 951.81 851.63 951.78 846.39
  Q 951.72 836.70 951.51 827.01
  C 951.45 824.58 950.67 822.41 950.65 819.98
  C 950.56 810.01 951.31 799.62 949.92 789.75
  Q 949.20 784.64 949.64 779.45
  C 949.85 776.85 951.11 775.35 953.03 773.83
  Q 953.44 773.50 953.97 773.50
  L 1111.19 773.50
  A 2.19 2.18 90.0 0 0 1113.37 771.31
  L 1113.37 679.96
  A 4.16 4.16 0.0 0 0 1109.21 675.80
  L 524.61 675.66
  Q 521.65 675.66 521.69 678.62
  C 521.79 685.81 521.46 693.04 522.41 700.18
  C 522.97 704.41 522.75 708.07 523.68 712.55
  C 524.38 715.91 523.47 719.89 525.15 723.10
  A 1.58 1.54 -55.5 0 1 525.31 724.04
  C 524.91 726.91 526.25 728.48 526.32 731.00
  Q 526.35 732.52 526.43 734.07
  Q 526.46 734.58 526.76 734.99
  C 527.68 736.26 527.36 737.64 527.59 738.72
  Q 530.99 754.62 535.83 770.13
  Q 548.90 811.93 575.11 846.59
  C 585.52 860.36 598.31 872.40 611.94 882.90
  Q 612.62 883.43 613.17 883.44
  Q 614.08 883.45 614.36 882.48
  A 2.38 2.38 0.0 0 0 613.88 880.28
  Q 598.76 862.62 585.93 843.33
  Q 583.04 838.98 581.21 835.96
  Q 576.96 828.95 576.68 828.51
  Q 567.77 814.49 560.34 798.23
  Q 558.85 794.99 558.01 792.05
  Q 557.89 791.66 556.41 786.80
  Q 554.89 781.87 555.64 776.64
  C 555.82 775.38 556.60 774.75 557.47 773.93
  Q 557.84 773.58 558.36 773.58
  Q 769.39 773.01 855.44 773.54
  Q 857.07 773.55 859.06 775.43
  A 1.34 1.33 -73.1 0 1 859.48 776.22
  Q 860.77 784.54 860.57 792.94
  C 860.48 796.52 861.04 799.71 861.48 803.16
  C 862.19 808.74 861.63 814.77 862.33 820.66
  Q 863.04 826.63 863.02 830.38
  Q 863.01 836.01 863.10 841.64
  C 863.14 843.74 864.37 845.37 864.24 847.55
  Q 863.85 854.39 864.68 861.15
  Q 865.24 865.72 865.21 869.87
  Q 865.17 875.45 865.77 880.98
  C 866.45 887.27 866.42 892.35 866.36 898.16
  C 866.33 900.74 867.50 902.84 867.49 905.62
  Q 867.47 912.05 867.49 918.48
  C 867.50 920.33 868.45 921.89 868.47 923.79
  C 868.50 929.78 868.59 934.67 869.43 941.36
  Q 870.51 950.02 869.27 958.75
  C 869.09 959.99 870.26 962.12 870.27 963.79
  Q 870.33 973.26 870.44 982.73
  C 870.52 989.71 871.51 993.85 864.71 996.19
  C 841.01 1004.37 817.29 1011.16 793.02 1015.81
  Q 778.39 1018.61 773.50 1019.24
  Q 741.96 1023.27 710.20 1022.29
  C 705.96 1022.16 701.07 1021.55 696.42 1021.36
  Q 689.43 1021.08 686.11 1020.69
  Q 667.47 1018.51 643.36 1013.68
  Q 638.55 1012.72 636.36 1012.11
  Q 634.15 1011.48 634.09 1011.47
  Q 547.55 990.17 478.73 933.77
  C 475.49 931.11 472.14 928.51 469.13 925.69
  Q 446.77 904.72 426.10 882.10
  C 424.42 880.25 422.72 877.80 420.82 875.45
  Q 373.81 817.31 352.71 744.51
  Q 350.46 736.74 346.70 720.51
  Q 343.99 708.82 342.81 701.35
  C 342.47 699.17 341.18 696.17 341.57 693.06
  A 1.83 1.80 37.6 0 0 341.44 692.13
  Q 340.06 688.97 340.58 685.49
  A 1.61 1.57 -54.9 0 0 340.42 684.51
  C 338.90 681.60 339.80 678.62 339.20 675.49
  C 338.42 671.46 338.37 668.83 338.21 665.21
  Q 338.19 664.76 337.77 664.58
  Q 337.58 664.50 337.40 664.38
  A 0.55 0.55 0.0 0 0 336.55 664.83
  C 336.49 668.50 335.52 672.17 335.47 675.64
  Q 335.05 707.22 335.49 738.81
  C 335.56 743.16 336.29 747.92 336.47 752.57
  Q 336.76 760.34 337.01 762.89
  Q 339.94 792.36 346.49 821.22
  Q 364.94 902.47 415.46 968.55
  Q 420.82 975.57 425.29 980.38
  C 425.92 981.05 426.42 981.95 427.17 982.83
  Q 469.35 1032.18 524.02 1065.43
  Q 586.69 1103.54 661.75 1115.71
  Q 671.74 1117.33 677.66 1117.86
  C 679.71 1118.05 681.35 1118.77 683.54 1118.76
  C 688.53 1118.74 694.42 1119.56 698.33 1119.77
  Q 729.38 1121.44 755.00 1119.40
  Q 759.82 1119.02 762.83 1118.87
  Q 767.78 1118.63 770.62 1118.17
  Q 777.98 1116.99 785.33 1115.87
  Q 827.26 1109.52 866.07 1095.12
  A 2.69 2.68 -23.9 0 1 869.38 1096.39"
/>
<path stroke="#b2c0f7" vector-effect="non-scaling-stroke" d="
  M 997.09 910.15
  Q 992.26 915.02 987.69 919.76
  A 6.76 6.74 -23.2 0 0 985.81 924.43
  C 985.83 933.78 985.97 943.05 985.43 952.83
  Q 984.31 973.15 984.42 993.50
  C 984.46 1000.21 983.67 1007.15 983.39 1014.00
  Q 983.28 1016.80 984.93 1018.34
  A 2.17 2.17 0.0 0 0 987.94 1018.29
  Q 999.45 1006.91 1010.85 995.36
  Q 1017.20 988.92 1034.38 966.93
  Q 1059.53 934.73 1077.51 898.03
  Q 1079.81 893.34 1084.18 882.61
  C 1085.33 879.79 1087.49 874.53 1085.51 871.82
  A 0.94 0.91 71.7 0 0 1084.76 871.43
  Q 1060.11 871.45 1035.46 871.57
  C 1033.96 871.58 1032.12 872.48 1031.08 873.58
  Q 1018.55 886.80 1006.37 900.35
  Q 1002.04 905.17 997.09 910.15"
/>
</g>
<path fill="#fbfcf9" d="
  M 832.27 274.65
  A 0.95 0.93 7.6 0 0 832.59 275.06
  Q 833.46 275.65 833.84 277.91
  Q 834.14 279.65 834.63 280.96
  Q 844.15 306.33 852.32 332.17
  C 852.58 333.01 853.41 333.80 853.26 335.07
  Q 853.19 335.57 853.37 336.04
  Q 856.90 345.39 858.23 353.23
  C 859.21 359.05 852.46 357.91 849.36 356.73
  Q 844.81 354.99 844.46 354.90
  Q 837.86 353.14 831.32 351.21
  Q 822.86 348.72 814.21 347.07
  Q 814.12 347.05 810.88 346.12
  C 809.18 345.63 807.75 345.95 806.11 345.43
  Q 802.23 344.21 798.22 343.73
  C 795.47 343.40 792.76 341.92 789.50 342.35
  Q 788.99 342.41 788.52 342.19
  Q 785.32 340.65 781.76 341.13
  A 1.79 1.76 -35.8 0 1 780.77 340.98
  Q 778.30 339.81 775.52 340.33
  A 1.29 1.29 0.0 0 1 774.62 340.17
  Q 771.90 338.56 769.89 336.28
  Q 768.26 334.42 767.38 331.01
  Q 764.50 319.89 757.21 294.28
  Q 753.79 282.24 751.54 275.29
  Q 751.29 274.52 748.74 266.12
  Q 747.61 262.41 745.72 257.01
  Q 735.33 227.32 731.53 217.22
  Q 722.33 192.74 710.77 169.29
  Q 710.72 169.19 706.26 159.40
  C 704.06 154.57 700.94 149.80 698.80 145.43
  Q 686.71 120.73 670.58 98.45
  Q 667.57 94.30 654.33 82.01
  C 651.55 79.43 648.22 77.33 645.14 74.98
  Q 642.15 72.70 638.99 71.22
  Q 635.69 69.67 632.44 68.06
  C 627.01 65.38 623.59 66.87 618.21 68.47
  Q 616.64 68.94 614.73 70.28
  C 613.19 71.36 611.59 71.87 610.18 73.02
  Q 593.75 86.46 584.06 102.80
  Q 578.13 112.78 571.11 129.19
  Q 560.30 154.44 551.83 180.55
  Q 551.82 180.61 551.29 183.28
  C 550.98 184.85 550.04 185.47 549.74 186.95
  C 549.39 188.63 549.29 190.38 548.73 191.97
  Q 546.90 197.25 545.88 202.75
  Q 545.76 203.43 544.86 205.88
  C 544.28 207.45 544.53 208.89 544.16 210.35
  Q 543.46 213.14 542.71 215.92
  Q 542.62 216.26 542.24 219.08
  C 542.04 220.61 541.15 221.71 540.99 223.25
  Q 540.54 227.60 539.32 231.78
  C 538.87 233.33 539.00 234.77 538.82 236.38
  A 1.81 1.79 66.5 0 1 538.47 237.28
  Q 537.24 238.93 537.59 241.07
  A 1.79 1.73 56.0 0 1 537.39 242.19
  Q 536.48 243.82 536.79 245.73
  A 1.45 1.42 54.6 0 1 536.65 246.60
  C 535.32 249.32 535.35 252.20 534.93 254.48
  Q 534.05 259.31 533.32 264.17
  Q 533.24 264.69 532.31 267.72
  C 531.79 269.44 532.12 271.09 531.75 272.72
  Q 530.20 279.63 529.16 286.62
  Q 527.52 297.70 527.50 297.84
  Q 523.61 321.89 522.40 333.38
  Q 521.92 337.92 521.47 340.58
  C 520.82 344.49 521.35 348.37 520.23 352.26
  C 519.34 355.31 519.86 357.71 519.30 360.49
  C 518.57 364.11 518.80 368.03 518.50 370.83
  Q 517.18 383.04 516.64 395.31
  Q 516.62 395.80 516.29 396.17
  Q 509.28 404.05 504.74 407.47
  Q 501.24 410.10 497.38 407.74
  Q 496.96 407.48 496.86 406.99
  C 496.46 404.88 495.53 403.42 495.75 401.26
  Q 497.17 387.09 496.69 372.86
  C 496.52 367.72 496.80 362.55 496.73 357.38
  C 496.71 355.83 497.52 354.86 497.51 353.42
  Q 497.51 344.08 497.50 334.75
  C 497.50 332.99 498.76 330.89 498.76 328.69
  Q 498.75 321.65 498.75 314.61
  C 498.75 312.72 499.64 311.26 499.60 309.50
  C 499.54 306.81 499.33 298.89 500.74 296.73
  Q 500.99 296.34 500.99 295.88
  Q 500.89 290.29 501.82 284.01
  Q 502.67 278.35 502.15 271.99
  C 502.04 270.67 503.09 268.51 503.18 266.66
  Q 503.31 264.02 504.14 258.87
  Q 504.41 257.20 504.41 252.00
  Q 504.41 250.14 505.17 247.08
  C 505.93 244.03 505.38 241.16 506.13 238.02
  C 506.92 234.65 506.28 231.58 507.15 228.24
  Q 508.14 224.47 507.85 220.54
  Q 507.81 220.02 508.09 219.59
  C 509.72 217.04 508.93 214.26 509.39 211.81
  Q 510.01 208.52 510.02 205.17
  Q 510.02 204.67 510.27 204.23
  Q 511.77 201.64 511.13 198.54
  A 1.21 1.19 55.6 0 1 511.29 197.65
  Q 512.94 195.11 512.57 191.52
  Q 512.48 190.71 513.22 189.97
  Q 513.64 189.55 513.54 188.96
  Q 513.04 186.10 514.48 183.71
  Q 514.75 183.27 514.73 182.76
  C 514.70 181.40 514.61 180.22 515.04 178.88
  Q 516.34 174.84 516.75 170.63
  C 517.01 168.09 518.22 165.89 517.99 163.02
  A 0.85 0.85 0.0 0 1 518.34 162.26
  Q 519.95 161.10 519.42 159.04
  A 1.11 1.10 55.9 0 1 519.59 158.14
  Q 520.50 156.89 520.24 155.32
  Q 520.17 154.88 520.35 154.48
  Q 522.16 150.46 522.35 146.00
  Q 522.37 145.57 522.61 145.21
  C 523.86 143.37 523.41 141.74 524.08 139.91
  Q 524.93 137.61 525.87 134.00
  Q 527.49 127.74 530.42 118.93
  Q 530.48 118.75 533.47 109.52
  Q 538.28 94.69 545.41 80.79
  C 546.12 79.41 547.31 76.07 548.75 74.04
  Q 550.22 71.98 550.60 71.32
  Q 558.70 57.59 565.45 50.20
  Q 578.37 36.07 585.97 30.21
  Q 592.83 24.91 604.79 20.11
  C 605.69 19.75 607.14 19.93 608.12 18.91
  A 1.57 1.51 13.7 0 1 608.88 18.47
  C 611.76 17.78 614.36 17.01 617.37 17.00
  Q 629.86 16.99 642.36 17.01
  C 645.68 17.01 648.62 17.70 651.79 18.41
  Q 652.29 18.52 652.67 18.84
  C 654.06 19.98 655.66 19.66 657.08 20.22
  Q 678.66 28.73 693.79 41.97
  Q 703.98 50.88 718.35 66.01
  Q 725.82 73.88 731.55 81.01
  Q 743.14 95.44 753.22 111.00
  Q 756.62 116.25 766.86 133.81
  Q 775.52 148.66 783.26 164.02
  C 783.47 164.44 783.70 164.53 783.91 164.95
  Q 794.89 186.96 800.76 199.51
  Q 818.05 236.47 832.27 274.65
  Z
  M 538.28 99.09
  Q 529.08 123.75 523.46 147.00
  Q 521.32 155.88 520.05 160.88
  C 518.56 166.79 517.50 172.94 516.08 178.95
  C 515.60 180.96 515.68 183.60 514.57 185.84
  Q 514.33 186.32 514.43 186.85
  Q 514.92 189.56 513.53 191.85
  Q 513.26 192.29 513.35 192.79
  Q 513.83 195.59 512.40 197.99
  A 1.50 1.47 56.5 0 0 512.20 199.01
  Q 512.67 201.99 511.30 204.60
  A 1.87 1.85 -33.8 0 0 511.09 205.64
  Q 511.45 209.33 510.02 212.73
  A 1.87 1.78 -39.7 0 0 509.90 213.75
  Q 510.52 217.46 508.95 220.78
  A 1.73 1.71 -37.5 0 0 508.81 221.80
  C 509.38 225.43 507.81 228.00 507.76 231.21
  C 507.72 234.12 507.74 236.10 506.96 239.20
  Q 506.12 242.60 506.59 246.19
  A 1.35 1.31 57.8 0 1 506.40 247.09
  C 504.59 250.06 505.69 255.28 505.05 258.76
  C 504.36 262.52 504.56 265.93 503.80 269.48
  C 502.77 274.28 503.57 278.90 502.77 283.77
  C 501.91 288.97 502.42 293.81 501.40 298.98
  C 500.57 303.18 501.30 307.19 500.50 311.42
  Q 499.78 315.23 499.83 317.63
  C 499.92 322.70 500.08 327.02 499.31 332.41
  Q 498.20 340.19 498.89 348.75
  C 499.20 352.48 497.57 355.94 497.59 359.47
  C 497.67 371.36 498.16 383.49 497.20 395.34
  Q 496.73 401.13 497.12 404.61
  C 497.70 409.76 503.27 407.87 505.69 405.69
  Q 510.20 401.65 514.39 397.27
  C 516.36 395.22 515.62 393.21 515.79 390.98
  Q 516.48 382.06 517.18 373.15
  Q 517.94 363.54 518.84 355.36
  Q 527.67 274.98 544.58 203.61
  Q 551.80 173.14 565.57 139.96
  Q 570.55 127.95 573.43 121.57
  C 580.34 106.22 588.04 92.83 599.85 81.20
  Q 606.96 74.19 610.52 71.73
  C 616.08 67.89 624.28 63.82 631.24 66.63
  Q 645.64 72.43 656.90 83.10
  Q 667.98 93.59 672.90 100.11
  Q 680.99 110.83 690.49 127.64
  C 694.68 135.06 699.44 144.74 704.05 153.23
  C 707.14 158.92 709.67 165.08 712.58 171.01
  Q 717.24 180.51 718.94 184.36
  Q 735.28 221.53 747.86 260.16
  Q 759.64 296.36 769.01 333.26
  Q 769.83 336.51 773.23 338.31
  C 775.82 339.69 778.97 339.04 782.07 340.33
  A 1.75 1.68 -38.0 0 0 783.03 340.43
  Q 785.08 340.05 786.96 340.53
  Q 790.65 341.48 791.19 341.55
  Q 795.07 342.05 802.02 343.46
  Q 824.17 347.95 839.04 352.38
  Q 841.09 352.99 843.14 353.51
  C 847.10 354.51 850.53 356.29 854.74 356.69
  Q 857.30 356.93 857.36 354.74
  Q 857.46 351.46 854.78 342.70
  Q 848.61 322.58 841.52 302.77
  Q 838.57 294.52 834.73 283.98
  Q 808.07 210.84 770.87 142.47
  C 749.71 103.57 724.20 68.57 691.82 41.45
  Q 677.29 29.28 657.93 21.69
  C 654.95 20.52 651.34 19.67 648.11 18.69
  C 646.66 18.25 645.10 18.50 643.59 18.06
  Q 641.45 17.44 640.31 17.45
  Q 631.91 17.52 623.50 17.53
  Q 617.55 17.54 613.13 18.67
  Q 601.75 21.58 591.75 27.63
  C 583.38 32.69 574.20 41.38 567.78 48.77
  Q 548.99 70.37 538.28 99.09
  Z"
/>
<path fill="#6983f4" d="
  M 538.28 99.09
  Q 548.99 70.37 567.78 48.77
  C 574.20 41.38 583.38 32.69 591.75 27.63
  Q 601.75 21.58 613.13 18.67
  Q 617.55 17.54 623.50 17.53
  Q 631.91 17.52 640.31 17.45
  Q 641.45 17.44 643.59 18.06
  C 645.10 18.50 646.66 18.25 648.11 18.69
  C 651.34 19.67 654.95 20.52 657.93 21.69
  Q 677.29 29.28 691.82 41.45
  C 724.20 68.57 749.71 103.57 770.87 142.47
  Q 808.07 210.84 834.73 283.98
  Q 838.57 294.52 841.52 302.77
  Q 848.61 322.58 854.78 342.70
  Q 857.46 351.46 857.36 354.74
  Q 857.30 356.93 854.74 356.69
  C 850.53 356.29 847.10 354.51 843.14 353.51
  Q 841.09 352.99 839.04 352.38
  Q 824.17 347.95 802.02 343.46
  Q 795.07 342.05 791.19 341.55
  Q 790.65 341.48 786.96 340.53
  Q 785.08 340.05 783.03 340.43
  A 1.75 1.68 -38.0 0 1 782.07 340.33
  C 778.97 339.04 775.82 339.69 773.23 338.31
  Q 769.83 336.51 769.01 333.26
  Q 759.64 296.36 747.86 260.16
  Q 735.28 221.53 718.94 184.36
  Q 717.24 180.51 712.58 171.01
  C 709.67 165.08 707.14 158.92 704.05 153.23
  C 699.44 144.74 694.68 135.06 690.49 127.64
  Q 680.99 110.83 672.90 100.11
  Q 667.98 93.59 656.90 83.10
  Q 645.64 72.43 631.24 66.63
  C 624.28 63.82 616.08 67.89 610.52 71.73
  Q 606.96 74.19 599.85 81.20
  C 588.04 92.83 580.34 106.22 573.43 121.57
  Q 570.55 127.95 565.57 139.96
  Q 551.80 173.14 544.58 203.61
  Q 527.67 274.98 518.84 355.36
  Q 517.94 363.54 517.18 373.15
  Q 516.48 382.06 515.79 390.98
  C 515.62 393.21 516.36 395.22 514.39 397.27
  Q 510.20 401.65 505.69 405.69
  C 503.27 407.87 497.70 409.76 497.12 404.61
  Q 496.73 401.13 497.20 395.34
  C 498.16 383.49 497.67 371.36 497.59 359.47
  C 497.57 355.94 499.20 352.48 498.89 348.75
  Q 498.20 340.19 499.31 332.41
  C 500.08 327.02 499.92 322.70 499.83 317.63
  Q 499.78 315.23 500.50 311.42
  C 501.30 307.19 500.57 303.18 501.40 298.98
  C 502.42 293.81 501.91 288.97 502.77 283.77
  C 503.57 278.90 502.77 274.28 503.80 269.48
  C 504.56 265.93 504.36 262.52 505.05 258.76
  C 505.69 255.28 504.59 250.06 506.40 247.09
  A 1.35 1.31 57.8 0 0 506.59 246.19
  Q 506.12 242.60 506.96 239.20
  C 507.74 236.10 507.72 234.12 507.76 231.21
  C 507.81 228.00 509.38 225.43 508.81 221.80
  A 1.73 1.71 -37.5 0 1 508.95 220.78
  Q 510.52 217.46 509.90 213.75
  A 1.87 1.78 -39.7 0 1 510.02 212.73
  Q 511.45 209.33 511.09 205.64
  A 1.87 1.85 -33.8 0 1 511.30 204.60
  Q 512.67 201.99 512.20 199.01
  A 1.50 1.47 56.5 0 1 512.40 197.99
  Q 513.83 195.59 513.35 192.79
  Q 513.26 192.29 513.53 191.85
  Q 514.92 189.56 514.43 186.85
  Q 514.33 186.32 514.57 185.84
  C 515.68 183.60 515.60 180.96 516.08 178.95
  C 517.50 172.94 518.56 166.79 520.05 160.88
  Q 521.32 155.88 523.46 147.00
  Q 529.08 123.75 538.28 99.09
  Z"
/>
<path fill="#fbfcf9" d="
  M 803.23 450.47
  Q 813.05 455.28 821.06 460.68
  Q 826.71 464.48 829.06 466.00
  Q 836.92 471.08 843.67 477.58
  Q 856.67 490.11 869.03 503.28
  C 871.05 505.43 872.94 508.02 874.96 510.43
  Q 876.09 511.77 877.09 513.46
  C 879.10 516.83 881.98 520.25 883.77 522.94
  Q 897.70 543.89 907.31 567.18
  Q 907.73 568.21 907.73 569.61
  Q 907.73 570.13 908.07 570.52
  C 911.03 573.91 906.82 578.05 903.26 577.53
  Q 902.74 577.46 902.25 577.65
  C 898.52 579.10 892.56 578.26 886.58 578.30
  Q 885.18 578.31 880.98 578.83
  C 876.95 579.34 872.53 578.27 869.13 578.30
  Q 866.02 578.32 862.91 578.30
  C 861.11 578.28 859.42 577.45 857.39 577.44
  Q 856.05 577.43 855.19 577.16
  Q 846.11 574.31 843.76 572.64
  Q 822.41 557.55 798.41 547.15
  Q 792.40 544.55 786.21 542.47
  Q 780.03 540.39 773.78 538.48
  Q 764.22 535.55 756.74 534.73
  Q 753.03 534.32 751.29 533.50
  A 2.14 2.02 -31.4 0 0 750.35 533.30
  C 745.58 533.39 740.82 532.04 736.51 532.02
  Q 724.13 531.97 711.75 532.00
  C 707.28 532.01 702.53 533.04 697.81 533.24
  C 695.61 533.34 694.01 534.49 691.87 534.64
  Q 688.66 534.87 685.55 535.63
  Q 682.56 536.37 679.35 537.12
  Q 675.89 537.94 670.51 539.71
  Q 654.71 544.91 649.60 547.12
  Q 622.58 558.84 599.54 577.16
  A 1.46 1.45 -64.2 0 1 598.63 577.48
  C 596.61 577.49 594.97 578.07 593.05 578.09
  Q 571.03 578.30 549.01 578.31
  C 545.63 578.31 543.68 578.68 540.87 576.44
  Q 540.48 576.13 540.34 575.65
  Q 539.10 571.16 541.04 566.83
  Q 552.64 540.94 567.25 520.25
  Q 569.77 516.68 571.28 514.44
  Q 573.90 510.57 575.42 508.70
  Q 580.90 502.00 585.44 497.44
  Q 601.63 481.13 605.99 477.03
  C 614.40 469.13 624.87 462.43 635.17 456.33
  Q 649.46 447.87 665.26 442.45
  Q 665.73 442.29 666.06 441.94
  Q 666.76 441.21 667.91 441.47
  Q 668.40 441.58 668.80 441.28
  L 669.22 440.96
  Q 669.54 440.72 669.93 440.60
  Q 678.34 437.88 686.98 436.05
  C 688.84 435.65 691.17 434.24 693.88 434.67
  Q 694.38 434.75 694.85 434.53
  C 697.89 433.10 701.47 433.38 704.00 433.00
  C 709.18 432.22 714.52 432.63 719.63 432.15
  Q 724.61 431.69 729.57 432.01
  Q 735.34 432.38 739.47 432.45
  Q 747.45 432.56 755.28 434.28
  C 757.11 434.67 759.24 434.30 761.20 435.44
  C 762.89 436.43 763.74 435.76 765.35 436.22
  Q 774.51 438.85 783.60 441.69
  Q 784.07 441.84 784.37 442.23
  Q 784.51 442.41 784.65 442.56
  Q 784.78 442.69 784.98 442.75
  C 791.44 444.55 795.59 446.74 803.23 450.47
  Z
  M 603.76 480.44
  C 593.50 490.36 583.29 500.12 575.38 510.36
  Q 559.92 530.40 546.76 556.58
  Q 542.62 564.81 540.90 570.48
  Q 539.54 574.98 542.62 576.67
  Q 544.13 577.50 547.98 577.50
  C 564.84 577.47 581.88 577.76 598.68 576.37
  Q 599.18 576.33 599.57 576.02
  Q 624.67 556.20 653.01 544.59
  Q 677.24 534.66 704.21 531.51
  C 711.94 530.61 720.36 530.85 728.42 530.88
  C 769.69 531.08 809.86 547.73 843.25 571.28
  Q 847.36 574.17 856.04 576.25
  C 857.23 576.53 858.65 576.32 859.93 576.75
  Q 861.80 577.37 862.69 577.41
  Q 880.38 578.03 898.07 577.39
  Q 899.24 577.35 901.09 576.86
  C 903.88 576.11 907.19 577.28 907.94 573.25
  Q 908.04 572.73 907.80 572.26
  C 906.86 570.44 906.74 568.47 906.05 566.80
  Q 893.02 535.00 874.46 511.25
  Q 859.21 491.73 836.79 472.83
  C 830.76 467.74 823.92 463.66 817.17 459.42
  Q 791.05 443.05 761.00 436.35
  C 757.55 435.58 753.54 435.07 749.81 434.41
  Q 745.57 433.65 741.36 433.49
  C 735.50 433.26 729.45 432.63 723.87 432.79
  Q 712.13 433.13 700.45 434.40
  C 697.89 434.68 694.70 435.83 691.50 435.70
  Q 691.23 435.69 691.02 435.79
  C 690.56 436.00 690.36 436.23 689.87 436.33
  Q 649.22 445.02 615.23 470.75
  Q 608.56 475.81 603.76 480.44
  Z"
/>
<path fill="#6983f4" d="
  M 603.76 480.44
  Q 608.56 475.81 615.23 470.75
  Q 649.22 445.02 689.87 436.33
  C 690.36 436.23 690.56 436.00 691.02 435.79
  Q 691.23 435.69 691.50 435.70
  C 694.70 435.83 697.89 434.68 700.45 434.40
  Q 712.13 433.13 723.87 432.79
  C 729.45 432.63 735.50 433.26 741.36 433.49
  Q 745.57 433.65 749.81 434.41
  C 753.54 435.07 757.55 435.58 761.00 436.35
  Q 791.05 443.05 817.17 459.42
  C 823.92 463.66 830.76 467.74 836.79 472.83
  Q 859.21 491.73 874.46 511.25
  Q 893.02 535.00 906.05 566.80
  C 906.74 568.47 906.86 570.44 907.80 572.26
  Q 908.04 572.73 907.94 573.25
  C 907.19 577.28 903.88 576.11 901.09 576.86
  Q 899.24 577.35 898.07 577.39
  Q 880.38 578.03 862.69 577.41
  Q 861.80 577.37 859.93 576.75
  C 858.65 576.32 857.23 576.53 856.04 576.25
  Q 847.36 574.17 843.25 571.28
  C 809.86 547.73 769.69 531.08 728.42 530.88
  C 720.36 530.85 711.94 530.61 704.21 531.51
  Q 677.24 534.66 653.01 544.59
  Q 624.67 556.20 599.57 576.02
  Q 599.18 576.33 598.68 576.37
  C 581.88 577.76 564.84 577.47 547.98 577.50
  Q 544.13 577.50 542.62 576.67
  Q 539.54 574.98 540.90 570.48
  Q 542.62 564.81 546.76 556.58
  Q 559.92 530.40 575.38 510.36
  C 583.29 500.12 593.50 490.36 603.76 480.44
  Z"
/>
<path fill="#fbfcf9" d="
  M 582.17 993.77
  C 584.06 994.83 586.06 995.19 588.00 995.96
  Q 600.22 1000.77 612.83 1004.45
  Q 613.13 1004.54 615.01 1005.48
  C 615.90 1005.93 617.29 1005.88 618.28 1006.20
  Q 624.13 1008.09 626.63 1008.60
  Q 631.87 1009.68 637.01 1011.16
  Q 638.77 1011.67 639.65 1012.20
  Q 640.06 1012.45 640.54 1012.47
  Q 644.09 1012.59 647.45 1013.46
  Q 652.20 1014.70 654.00 1014.94
  Q 660.03 1015.75 661.90 1016.31
  C 664.19 1017.00 667.86 1016.07 669.78 1017.50
  Q 670.17 1017.79 670.64 1017.84
  C 675.17 1018.33 679.09 1018.95 684.10 1019.28
  C 686.50 1019.44 688.63 1020.33 691.00 1020.25
  Q 696.79 1020.05 702.54 1020.56
  Q 710.28 1021.25 714.00 1021.26
  Q 723.29 1021.27 732.58 1021.26
  C 739.81 1021.26 748.29 1020.16 756.24 1020.21
  Q 757.75 1020.22 760.54 1019.55
  C 762.55 1019.08 764.76 1019.32 766.48 1019.12
  Q 771.23 1018.56 775.97 1017.92
  Q 776.49 1017.84 779.25 1017.00
  C 780.73 1016.54 782.46 1016.81 783.90 1016.52
  Q 791.07 1015.10 798.27 1013.83
  Q 802.07 1013.17 806.83 1011.88
  Q 811.08 1010.73 815.38 1009.83
  Q 819.51 1008.97 823.99 1007.66
  Q 828.22 1006.43 832.53 1005.49
  Q 833.01 1005.39 833.35 1005.04
  C 834.35 1004.04 835.76 1004.28 836.83 1003.98
  Q 849.08 1000.55 861.07 996.25
  C 864.54 995.01 866.83 995.15 869.09 991.68
  Q 869.31 991.34 869.31 990.93
  L 868.97 961.76
  A 1.32 1.28 28.9 0 0 868.75 961.04
  C 867.38 958.89 868.41 956.81 868.40 955.03
  Q 868.34 948.63 868.39 942.25
  Q 868.40 941.95 868.05 941.40
  A 1.89 1.77 -63.0 0 1 867.78 940.47
  Q 867.72 932.97 867.77 925.48
  C 867.79 922.92 866.39 921.20 866.37 918.76
  Q 866.31 911.78 866.33 904.80
  C 866.34 902.31 865.16 900.16 865.14 897.72
  Q 865.11 893.32 865.12 888.91
  C 865.12 882.29 864.03 875.32 864.19 868.35
  Q 864.26 865.07 863.64 861.19
  Q 862.66 855.03 863.14 848.76
  C 863.34 846.12 862.24 843.73 862.24 841.40
  Q 862.25 833.29 862.23 825.20
  C 862.22 823.58 861.01 822.68 861.00 821.13
  Q 860.99 816.25 860.98 811.38
  Q 860.98 807.48 860.21 801.68
  Q 859.25 794.57 859.47 787.36
  C 859.58 783.99 858.64 780.56 858.98 776.92
  Q 859.03 776.40 858.61 776.09
  Q 856.63 774.64 854.25 774.64
  Q 706.25 774.66 558.69 774.67
  A 1.70 1.69 5.3 0 0 557.02 776.05
  Q 556.03 781.31 557.47 786.51
  Q 558.99 792.03 559.13 792.56
  Q 560.03 796.05 561.67 799.32
  Q 569.39 814.72 574.86 824.15
  C 576.68 827.30 579.36 830.43 581.28 834.19
  Q 584.32 840.14 588.61 845.29
  Q 588.92 845.67 589.03 846.15
  Q 589.33 847.47 590.61 848.15
  A 0.99 0.97 9.0 0 1 591.10 848.81
  Q 591.57 851.20 593.75 852.57
  A 1.42 1.38 10.0 0 1 594.38 853.44
  Q 594.75 855.02 596.00 856.00
  Q 596.46 856.36 596.63 856.92
  Q 597.32 859.24 599.49 860.42
  Q 599.87 860.63 600.01 861.04
  C 600.76 863.19 602.61 864.79 603.60 866.25
  Q 607.55 872.03 612.37 877.12
  Q 613.56 878.38 615.03 880.89
  Q 615.28 881.31 615.27 881.81
  Q 615.23 885.01 612.26 884.24
  Q 611.79 884.11 611.47 883.73
  C 609.71 881.61 606.82 879.98 605.35 878.78
  Q 588.69 865.11 579.31 853.50
  Q 562.95 833.25 551.17 810.02
  Q 550.71 809.10 550.46 808.11
  Q 550.34 807.64 550.05 807.25
  Q 548.07 804.64 545.79 799.22
  Q 535.33 774.29 530.04 753.26
  C 529.58 751.42 528.22 749.55 528.53 747.01
  A 1.50 1.48 -56.2 0 0 528.36 746.11
  Q 527.45 744.46 527.78 742.53
  A 1.35 1.35 0.0 0 0 527.52 741.50
  Q 526.08 739.65 526.54 737.25
  Q 526.65 736.66 526.30 736.18
  Q 524.41 733.57 525.10 730.27
  A 1.41 1.39 38.9 0 0 525.00 729.38
  Q 523.79 726.86 524.32 724.02
  A 1.21 1.19 33.2 0 0 524.13 723.15
  Q 522.72 721.08 522.89 719.24
  Q 523.31 714.78 522.29 711.20
  C 521.30 707.73 522.00 704.52 521.47 701.05
  Q 520.86 697.01 520.86 694.90
  Q 520.89 686.18 520.86 677.50
  A 2.89 2.88 -0.1 0 1 523.75 674.61
  L 1109.15 674.60
  A 4.80 4.79 0.1 0 1 1113.95 679.40
  L 1113.87 772.01
  Q 1113.86 774.66 1111.21 774.66
  Q 1034.19 774.62 957.85 774.66
  C 955.34 774.66 953.55 773.75 951.77 776.09
  Q 950.87 777.27 950.72 779.74
  Q 950.40 785.19 951.13 790.60
  Q 951.93 796.58 951.94 799.70
  Q 951.99 811.35 951.92 823.00
  C 951.92 823.84 952.46 824.63 952.47 825.69
  Q 952.59 838.17 952.76 850.64
  Q 952.79 853.38 953.36 857.31
  C 954.58 865.69 954.04 874.80 954.01 885.97
  Q 954.00 888.41 954.54 891.47
  C 955.84 898.70 955.33 907.07 955.24 916.94
  Q 955.22 919.23 955.76 921.50
  C 956.32 923.82 957.30 926.44 956.28 928.10
  Q 956.03 928.52 956.03 929.00
  Q 956.00 949.45 956.03 969.90
  C 956.04 972.84 955.29 975.57 955.28 978.49
  Q 955.25 993.03 955.21 1007.57
  C 955.20 1010.03 954.08 1012.39 954.05 1014.67
  Q 953.94 1024.58 954.02 1034.50
  Q 954.03 1035.51 952.93 1037.51
  A 1.90 1.82 -32.4 0 0 952.70 1038.44
  C 952.94 1048.06 951.66 1055.19 951.91 1063.64
  Q 951.99 1066.25 951.32 1069.29
  Q 950.43 1073.38 950.48 1077.58
  Q 950.51 1079.87 949.88 1082.36
  Q 948.70 1086.93 949.30 1091.70
  C 949.49 1093.24 948.45 1093.95 948.43 1095.28
  Q 948.39 1100.19 948.44 1105.10
  Q 948.45 1105.60 948.14 1106.00
  C 946.16 1108.59 947.30 1111.45 946.73 1114.49
  C 946.17 1117.55 946.36 1119.79 946.30 1122.65
  Q 946.28 1123.79 945.46 1126.24
  Q 944.69 1128.57 944.98 1131.74
  Q 945.12 1133.30 943.77 1135.25
  A 1.38 1.36 58.5 0 0 943.55 1136.20
  Q 944.01 1139.51 943.45 1142.69
  C 942.90 1145.89 943.36 1149.31 941.62 1152.50
  A 1.50 1.49 55.2 0 0 941.45 1153.46
  Q 941.83 1155.91 941.21 1158.18
  Q 940.28 1161.55 940.18 1162.72
  Q 939.81 1167.38 939.43 1172.04
  Q 939.34 1173.19 938.58 1174.79
  C 937.68 1176.71 938.20 1178.90 938.12 1180.79
  C 938.04 1182.87 936.40 1183.94 936.81 1186.62
  Q 936.90 1187.17 936.69 1187.70
  Q 935.55 1190.58 936.08 1193.74
  A 1.31 1.30 -31.2 0 1 935.82 1194.77
  Q 933.86 1197.22 934.62 1200.47
  A 2.17 2.17 0.0 0 1 934.55 1201.71
  Q 933.65 1204.13 933.98 1206.72
  Q 934.04 1207.20 933.77 1207.59
  Q 932.19 1209.93 932.54 1212.81
  Q 932.61 1213.31 932.37 1213.75
  C 930.89 1216.51 931.96 1218.95 930.60 1221.86
  Q 930.39 1222.32 930.47 1222.83
  Q 930.86 1225.00 929.45 1226.63
  Q 929.12 1227.01 929.17 1227.52
  Q 929.46 1230.12 928.08 1232.33
  A 1.33 1.30 58.4 0 0 927.88 1233.21
  Q 928.40 1237.67 926.93 1241.73
  Q 926.00 1244.29 925.78 1246.38
  Q 925.28 1250.97 923.65 1255.27
  Q 923.47 1255.75 923.54 1256.26
  Q 923.74 1257.71 922.99 1258.88
  Q 922.73 1259.27 922.63 1259.72
  L 919.71 1272.39
  A 0.47 0.46 79.3 0 1 919.53 1272.66
  Q 918.91 1273.11 918.87 1273.73
  Q 918.55 1277.82 916.98 1281.01
  Q 916.75 1281.46 916.73 1281.96
  Q 916.70 1282.34 916.60 1282.71
  Q 914.88 1289.10 913.10 1295.47
  Q 912.52 1297.55 910.69 1302.57
  Q 909.83 1304.92 909.17 1307.34
  Q 908.37 1310.29 907.68 1312.10
  Q 906.43 1315.37 905.15 1318.61
  C 903.16 1323.69 901.42 1329.43 899.06 1334.69
  Q 895.90 1341.74 895.86 1341.84
  Q 887.63 1360.78 876.27 1379.75
  Q 873.01 1385.20 869.73 1389.48
  C 867.40 1392.53 865.08 1396.65 862.09 1399.76
  C 860.34 1401.58 859.19 1403.88 857.50 1405.49
  Q 851.16 1411.53 845.08 1417.83
  Q 838.59 1424.56 828.11 1429.94
  Q 826.06 1430.99 823.65 1430.99
  Q 789.70 1430.98 755.75 1430.99
  Q 754.18 1430.99 751.91 1429.43
  C 745.12 1424.75 738.35 1421.03 732.80 1415.93
  Q 723.29 1407.18 710.51 1393.38
  Q 709.20 1391.97 706.83 1388.32
  C 705.28 1385.95 702.99 1383.92 701.52 1381.76
  Q 697.04 1375.19 692.43 1368.71
  C 690.38 1365.82 688.20 1361.72 685.84 1358.36
  Q 684.07 1355.84 683.15 1354.26
  Q 665.37 1323.92 653.93 1297.56
  Q 628.56 1239.09 609.84 1174.50
  Q 608.36 1169.41 607.50 1166.25
  Q 606.67 1163.19 605.02 1158.36
  Q 604.12 1155.69 603.42 1152.94
  Q 603.35 1152.65 602.03 1147.90
  C 601.03 1144.28 599.42 1136.78 602.58 1133.89
  Q 605.11 1131.59 608.74 1133.65
  Q 609.19 1133.91 609.69 1133.89
  C 611.31 1133.84 612.38 1134.83 613.65 1135.17
  Q 615.45 1135.64 617.27 1136.02
  Q 619.49 1136.47 620.69 1137.36
  Q 623.74 1139.63 625.10 1143.74
  Q 629.23 1156.20 636.78 1174.95
  Q 645.93 1197.70 656.15 1219.98
  Q 674.32 1259.58 695.59 1297.60
  Q 709.32 1322.14 730.28 1348.97
  Q 732.24 1351.49 733.59 1352.88
  C 735.63 1355.00 736.77 1357.14 738.54 1358.96
  Q 742.32 1362.87 750.91 1371.31
  Q 754.61 1374.95 758.82 1377.78
  Q 765.10 1382.01 767.41 1383.37
  Q 771.59 1385.84 778.05 1387.76
  Q 790.00 1391.32 799.25 1386.05
  Q 802.81 1384.02 807.26 1379.53
  Q 810.32 1376.46 813.76 1371.57
  Q 819.89 1362.87 821.57 1359.82
  Q 830.94 1342.87 834.05 1333.74
  Q 836.74 1325.82 839.66 1317.98
  Q 840.19 1316.56 840.99 1313.39
  Q 841.39 1311.84 841.95 1310.33
  Q 842.54 1308.78 842.84 1307.26
  Q 843.41 1304.38 844.43 1301.61
  C 845.00 1300.07 844.87 1298.10 846.03 1296.50
  A 1.87 1.81 66.7 0 0 846.37 1295.60
  Q 846.57 1293.38 846.89 1291.19
  C 847.24 1288.77 848.51 1286.31 848.59 1283.45
  Q 848.61 1282.95 848.95 1282.58
  C 850.25 1281.18 849.64 1279.54 849.93 1278.12
  Q 850.58 1274.95 851.29 1271.81
  Q 851.76 1269.76 851.89 1268.30
  Q 852.10 1265.99 852.45 1264.81
  Q 853.74 1260.34 853.95 1255.71
  Q 854.03 1253.87 854.78 1251.40
  Q 855.69 1248.41 855.30 1245.16
  A 1.09 1.07 61.6 0 1 855.54 1244.33
  C 856.37 1243.32 856.68 1242.85 856.54 1241.44
  Q 856.02 1235.87 857.48 1230.58
  Q 858.74 1226.01 858.94 1223.89
  Q 859.45 1218.55 859.57 1213.18
  Q 859.60 1211.61 860.43 1209.21
  Q 861.45 1206.22 860.86 1202.95
  A 1.10 1.10 0.0 0 1 861.09 1202.04
  C 863.17 1199.43 861.90 1195.61 862.44 1192.46
  Q 862.91 1189.74 863.04 1186.98
  C 863.26 1182.66 864.40 1178.60 864.32 1173.45
  Q 864.29 1171.39 864.91 1167.60
  C 865.34 1164.91 865.02 1162.01 865.34 1159.48
  Q 866.62 1149.54 866.42 1139.51
  C 866.37 1137.21 867.78 1135.00 867.77 1132.45
  Q 867.71 1123.82 867.81 1115.21
  C 867.82 1114.45 868.40 1113.90 868.41 1113.20
  Q 868.53 1105.95 868.43 1097.42
  Q 868.40 1095.16 866.26 1095.88
  Q 863.62 1096.77 860.73 1097.93
  C 851.94 1101.48 842.42 1104.03 833.34 1106.73
  C 830.63 1107.54 826.32 1108.22 822.92 1109.66
  C 822.28 1109.94 821.00 1109.66 820.06 1109.94
  Q 807.42 1113.59 802.48 1113.98
  Q 800.13 1114.17 798.52 1114.82
  C 796.60 1115.60 795.19 1114.93 793.57 1115.64
  Q 790.64 1116.92 787.42 1116.76
  Q 786.93 1116.73 786.50 1116.98
  C 784.46 1118.14 780.46 1117.47 777.99 1118.08
  Q 775.68 1118.64 773.43 1118.74
  C 770.29 1118.89 767.96 1120.22 764.91 1120.10
  Q 760.99 1119.94 757.11 1120.31
  C 750.46 1120.95 744.58 1120.71 737.50 1121.21
  Q 724.41 1122.12 708.66 1120.98
  C 703.67 1120.63 698.91 1120.76 694.00 1120.74
  Q 693.69 1120.74 692.98 1120.34
  Q 692.54 1120.09 692.04 1120.10
  C 688.15 1120.15 684.91 1120.40 680.90 1119.38
  C 677.74 1118.58 674.78 1118.85 671.53 1118.10
  C 668.65 1117.44 666.14 1117.76 663.14 1117.02
  C 661.33 1116.57 659.85 1116.81 658.02 1116.11
  Q 655.46 1115.13 652.72 1115.35
  Q 652.23 1115.39 651.80 1115.14
  Q 650.52 1114.38 648.25 1114.11
  Q 643.54 1113.54 635.80 1111.79
  Q 632.87 1111.13 627.28 1109.51
  Q 623.05 1108.28 618.76 1107.26
  Q 614.85 1106.32 610.85 1104.99
  Q 607.58 1103.91 602.99 1102.50
  Q 584.14 1096.73 561.69 1086.35
  Q 561.30 1086.17 555.37 1083.18
  C 552.52 1081.74 549.49 1080.67 546.81 1079.19
  C 537.28 1073.92 527.19 1068.59 518.44 1063.08
  Q 503.37 1053.61 491.00 1044.16
  Q 482.14 1037.38 470.77 1027.84
  Q 463.26 1021.53 456.01 1014.37
  C 447.64 1006.10 438.56 997.75 431.22 988.56
  C 429.41 986.29 427.31 984.63 425.60 982.19
  C 423.59 979.30 420.93 977.30 418.98 974.49
  C 416.77 971.29 414.01 968.43 411.93 965.38
  Q 408.62 960.54 405.13 955.84
  Q 400.70 949.88 398.38 946.30
  Q 379.37 916.98 365.81 884.74
  Q 365.73 884.55 364.13 881.20
  C 362.98 878.80 362.61 876.34 361.55 874.02
  Q 360.77 872.32 360.13 870.55
  Q 349.38 841.04 344.75 818.01
  Q 342.50 806.81 341.36 801.82
  Q 341.16 800.96 340.94 798.16
  C 340.81 796.35 340.02 794.87 339.85 793.25
  Q 339.21 787.14 338.11 781.09
  C 337.59 778.17 337.95 774.12 336.86 770.69
  C 335.82 767.39 336.47 764.49 335.98 761.20
  Q 335.51 758.02 335.56 755.76
  C 335.70 749.44 334.72 742.77 334.73 737.07
  Q 334.81 706.31 334.73 675.56
  C 334.72 671.93 335.80 668.08 335.47 664.01
  A 0.75 0.74 -2.1 0 1 336.22 663.21
  L 338.20 663.23
  Q 338.97 663.23 338.99 664.01
  Q 339.03 666.65 339.02 669.23
  Q 339.01 671.03 339.76 673.68
  C 340.65 676.85 339.96 679.79 340.77 682.94
  Q 342.42 689.35 342.25 696.01
  Q 342.23 696.81 343.57 698.70
  A 1.34 1.33 30.7 0 1 343.81 699.63
  C 343.41 703.12 344.85 705.78 345.14 708.97
  Q 345.36 711.47 346.04 713.85
  Q 347.16 717.79 347.33 718.62
  Q 362.90 791.41 404.96 852.81
  Q 410.54 860.96 419.02 871.96
  Q 425.05 879.78 432.01 887.15
  Q 449.51 905.68 467.99 923.26
  Q 473.13 928.14 478.70 932.54
  C 487.97 939.87 497.65 947.49 506.98 953.86
  Q 539.38 975.95 575.59 991.18
  C 577.32 991.91 580.07 992.60 582.17 993.77
  Z
  M 869.38 1096.39
  C 870.26 1098.06 869.73 1099.66 869.77 1101.03
  C 870.02 1110.85 868.57 1119.30 868.57 1130.31
  Q 868.57 1133.67 867.90 1139.13
  C 867.26 1144.31 867.77 1149.18 866.85 1154.44
  C 866.03 1159.14 866.56 1163.72 865.79 1168.42
  Q 865.19 1172.07 865.17 1175.77
  C 865.14 1179.89 863.91 1183.86 864.12 1188.15
  C 864.22 1190.41 863.42 1192.25 863.26 1194.50
  Q 862.62 1203.15 860.85 1211.65
  C 860.44 1213.58 860.51 1215.25 860.53 1217.18
  C 860.55 1219.90 859.67 1222.39 859.54 1225.25
  C 859.35 1229.60 857.30 1233.30 857.52 1237.67
  Q 857.71 1241.41 856.72 1245.01
  C 856.15 1247.10 856.47 1249.03 855.95 1251.10
  Q 855.14 1254.33 855.00 1255.53
  Q 854.58 1259.10 853.40 1265.41
  Q 849.58 1286.01 846.56 1297.50
  Q 845.66 1300.94 844.99 1302.30
  Q 844.77 1302.73 844.85 1303.22
  Q 844.89 1303.54 844.84 1303.74
  Q 837.65 1331.57 824.21 1356.90
  Q 822.40 1360.31 820.00 1363.94
  C 814.55 1372.14 809.44 1380.14 801.40 1385.65
  C 786.51 1395.84 771.16 1387.23 758.56 1378.68
  Q 754.74 1376.09 751.54 1373.09
  C 732.36 1355.14 716.14 1334.00 702.64 1311.14
  Q 656.20 1232.57 625.13 1146.63
  C 623.26 1141.45 623.27 1138.68 617.02 1137.03
  Q 612.12 1135.74 607.27 1134.22
  C 600.79 1132.18 601.24 1139.67 602.13 1143.79
  Q 603.48 1150.07 605.39 1156.18
  Q 608.54 1166.24 609.15 1168.42
  Q 627.60 1234.37 654.39 1296.09
  Q 668.75 1329.17 688.21 1360.51
  Q 693.34 1368.76 699.35 1377.11
  Q 707.92 1389.00 713.52 1395.50
  Q 720.94 1404.11 733.48 1415.31
  Q 737.74 1419.12 742.38 1422.25
  C 746.81 1425.26 753.68 1430.68 758.86 1430.62
  Q 790.81 1430.22 822.75 1430.40
  Q 825.05 1430.41 827.00 1429.38
  Q 837.20 1423.99 845.04 1416.80
  Q 853.49 1409.05 861.88 1398.93
  C 864.20 1396.13 866.31 1392.75 868.60 1389.67
  Q 871.83 1385.33 873.50 1382.62
  Q 888.14 1358.95 898.58 1333.10
  Q 908.50 1308.52 915.50 1282.97
  Q 917.78 1274.63 920.08 1266.29
  Q 920.49 1264.80 920.87 1263.29
  Q 923.04 1254.87 924.67 1246.30
  C 925.21 1243.50 926.52 1240.30 926.86 1237.13
  Q 927.42 1231.87 927.74 1230.46
  Q 928.95 1225.19 930.14 1219.91
  C 930.62 1217.81 930.12 1215.47 931.38 1213.21
  A 1.57 1.54 -33.8 0 0 931.58 1212.25
  Q 931.29 1209.57 932.65 1207.32
  A 1.17 1.15 -36.1 0 0 932.79 1206.47
  Q 932.24 1203.92 933.54 1201.77
  A 1.52 1.49 58.0 0 0 933.75 1200.81
  C 933.31 1197.02 934.86 1194.45 934.93 1190.84
  C 934.97 1188.69 936.00 1186.74 936.08 1184.42
  C 936.14 1182.83 936.77 1181.82 937.36 1180.43
  A 1.68 1.62 52.1 0 0 937.46 1179.49
  Q 936.79 1175.86 938.42 1172.68
  Q 938.67 1172.19 938.56 1171.65
  Q 937.85 1168.28 939.46 1165.29
  A 1.59 1.55 -36.2 0 0 939.63 1164.28
  Q 938.96 1160.56 940.57 1157.26
  Q 940.81 1156.77 940.70 1156.24
  Q 940.02 1152.95 941.61 1150.15
  A 1.53 1.53 0.0 0 0 941.80 1149.10
  Q 941.34 1146.43 942.07 1143.89
  C 943.10 1140.28 942.44 1137.25 943.38 1133.66
  C 944.20 1130.49 943.30 1127.96 945.03 1124.81
  Q 945.28 1124.36 945.26 1123.85
  Q 945.04 1115.04 946.62 1106.36
  C 947.49 1101.59 946.72 1097.01 948.03 1092.10
  C 948.93 1088.70 948.09 1085.54 948.93 1082.13
  C 949.95 1078.00 949.17 1074.21 950.06 1070.10
  C 951.26 1064.55 950.36 1058.89 951.14 1053.19
  C 951.83 1048.14 951.74 1044.07 951.80 1039.31
  C 951.83 1037.33 953.02 1035.55 953.08 1033.75
  Q 953.24 1028.89 952.95 1017.41
  C 952.83 1012.92 954.38 1008.63 954.26 1004.13
  Q 953.89 990.30 954.54 976.49
  Q 955.12 964.10 955.11 956.50
  Q 955.08 936.90 955.34 924.37
  Q 955.39 922.38 954.57 920.95
  Q 954.32 920.50 954.31 919.99
  C 954.17 911.27 954.28 903.37 953.53 894.02
  C 952.65 883.00 953.58 871.80 952.60 860.56
  Q 951.81 851.63 951.78 846.39
  Q 951.72 836.70 951.51 827.01
  C 951.45 824.58 950.67 822.41 950.65 819.98
  C 950.56 810.01 951.31 799.62 949.92 789.75
  Q 949.20 784.64 949.64 779.45
  C 949.85 776.85 951.11 775.35 953.03 773.83
  Q 953.44 773.50 953.97 773.50
  L 1111.19 773.50
  A 2.19 2.18 90.0 0 0 1113.37 771.31
  L 1113.37 679.96
  A 4.16 4.16 0.0 0 0 1109.21 675.80
  L 524.61 675.66
  Q 521.65 675.66 521.69 678.62
  C 521.79 685.81 521.46 693.04 522.41 700.18
  C 522.97 704.41 522.75 708.07 523.68 712.55
  C 524.38 715.91 523.47 719.89 525.15 723.10
  A 1.58 1.54 -55.5 0 1 525.31 724.04
  C 524.91 726.91 526.25 728.48 526.32 731.00
  Q 526.35 732.52 526.43 734.07
  Q 526.46 734.58 526.76 734.99
  C 527.68 736.26 527.36 737.64 527.59 738.72
  Q 530.99 754.62 535.83 770.13
  Q 548.90 811.93 575.11 846.59
  C 585.52 860.36 598.31 872.40 611.94 882.90
  Q 612.62 883.43 613.17 883.44
  Q 614.08 883.45 614.36 882.48
  A 2.38 2.38 0.0 0 0 613.88 880.28
  Q 598.76 862.62 585.93 843.33
  Q 583.04 838.98 581.21 835.96
  Q 576.96 828.95 576.68 828.51
  Q 567.77 814.49 560.34 798.23
  Q 558.85 794.99 558.01 792.05
  Q 557.89 791.66 556.41 786.80
  Q 554.89 781.87 555.64 776.64
  C 555.82 775.38 556.60 774.75 557.47 773.93
  Q 557.84 773.58 558.36 773.58
  Q 769.39 773.01 855.44 773.54
  Q 857.07 773.55 859.06 775.43
  A 1.34 1.33 -73.1 0 1 859.48 776.22
  Q 860.77 784.54 860.57 792.94
  C 860.48 796.52 861.04 799.71 861.48 803.16
  C 862.19 808.74 861.63 814.77 862.33 820.66
  Q 863.04 826.63 863.02 830.38
  Q 863.01 836.01 863.10 841.64
  C 863.14 843.74 864.37 845.37 864.24 847.55
  Q 863.85 854.39 864.68 861.15
  Q 865.24 865.72 865.21 869.87
  Q 865.17 875.45 865.77 880.98
  C 866.45 887.27 866.42 892.35 866.36 898.16
  C 866.33 900.74 867.50 902.84 867.49 905.62
  Q 867.47 912.05 867.49 918.48
  C 867.50 920.33 868.45 921.89 868.47 923.79
  C 868.50 929.78 868.59 934.67 869.43 941.36
  Q 870.51 950.02 869.27 958.75
  C 869.09 959.99 870.26 962.12 870.27 963.79
  Q 870.33 973.26 870.44 982.73
  C 870.52 989.71 871.51 993.85 864.71 996.19
  C 841.01 1004.37 817.29 1011.16 793.02 1015.81
  Q 778.39 1018.61 773.50 1019.24
  Q 741.96 1023.27 710.20 1022.29
  C 705.96 1022.16 701.07 1021.55 696.42 1021.36
  Q 689.43 1021.08 686.11 1020.69
  Q 667.47 1018.51 643.36 1013.68
  Q 638.55 1012.72 636.36 1012.11
  Q 634.15 1011.48 634.09 1011.47
  Q 547.55 990.17 478.73 933.77
  C 475.49 931.11 472.14 928.51 469.13 925.69
  Q 446.77 904.72 426.10 882.10
  C 424.42 880.25 422.72 877.80 420.82 875.45
  Q 373.81 817.31 352.71 744.51
  Q 350.46 736.74 346.70 720.51
  Q 343.99 708.82 342.81 701.35
  C 342.47 699.17 341.18 696.17 341.57 693.06
  A 1.83 1.80 37.6 0 0 341.44 692.13
  Q 340.06 688.97 340.58 685.49
  A 1.61 1.57 -54.9 0 0 340.42 684.51
  C 338.90 681.60 339.80 678.62 339.20 675.49
  C 338.42 671.46 338.37 668.83 338.21 665.21
  Q 338.19 664.76 337.77 664.58
  Q 337.58 664.50 337.40 664.38
  A 0.55 0.55 0.0 0 0 336.55 664.83
  C 336.49 668.50 335.52 672.17 335.47 675.64
  Q 335.05 707.22 335.49 738.81
  C 335.56 743.16 336.29 747.92 336.47 752.57
  Q 336.76 760.34 337.01 762.89
  Q 339.94 792.36 346.49 821.22
  Q 364.94 902.47 415.46 968.55
  Q 420.82 975.57 425.29 980.38
  C 425.92 981.05 426.42 981.95 427.17 982.83
  Q 469.35 1032.18 524.02 1065.43
  Q 586.69 1103.54 661.75 1115.71
  Q 671.74 1117.33 677.66 1117.86
  C 679.71 1118.05 681.35 1118.77 683.54 1118.76
  C 688.53 1118.74 694.42 1119.56 698.33 1119.77
  Q 729.38 1121.44 755.00 1119.40
  Q 759.82 1119.02 762.83 1118.87
  Q 767.78 1118.63 770.62 1118.17
  Q 777.98 1116.99 785.33 1115.87
  Q 827.26 1109.52 866.07 1095.12
  A 2.69 2.68 -23.9 0 1 869.38 1096.39
  Z"
/>
<path fill="#6983f4" d="
  M 869.38 1096.39
  A 2.69 2.68 -23.9 0 0 866.07 1095.12
  Q 827.26 1109.52 785.33 1115.87
  Q 777.98 1116.99 770.62 1118.17
  Q 767.78 1118.63 762.83 1118.87
  Q 759.82 1119.02 755.00 1119.40
  Q 729.38 1121.44 698.33 1119.77
  C 694.42 1119.56 688.53 1118.74 683.54 1118.76
  C 681.35 1118.77 679.71 1118.05 677.66 1117.86
  Q 671.74 1117.33 661.75 1115.71
  Q 586.69 1103.54 524.02 1065.43
  Q 469.35 1032.18 427.17 982.83
  C 426.42 981.95 425.92 981.05 425.29 980.38
  Q 420.82 975.57 415.46 968.55
  Q 364.94 902.47 346.49 821.22
  Q 339.94 792.36 337.01 762.89
  Q 336.76 760.34 336.47 752.57
  C 336.29 747.92 335.56 743.16 335.49 738.81
  Q 335.05 707.22 335.47 675.64
  C 335.52 672.17 336.49 668.50 336.55 664.83
  A 0.55 0.55 0.0 0 1 337.40 664.38
  Q 337.58 664.50 337.77 664.58
  Q 338.19 664.76 338.21 665.21
  C 338.37 668.83 338.42 671.46 339.20 675.49
  C 339.80 678.62 338.90 681.60 340.42 684.51
  A 1.61 1.57 -54.9 0 1 340.58 685.49
  Q 340.06 688.97 341.44 692.13
  A 1.83 1.80 37.6 0 1 341.57 693.06
  C 341.18 696.17 342.47 699.17 342.81 701.35
  Q 343.99 708.82 346.70 720.51
  Q 350.46 736.74 352.71 744.51
  Q 373.81 817.31 420.82 875.45
  C 422.72 877.80 424.42 880.25 426.10 882.10
  Q 446.77 904.72 469.13 925.69
  C 472.14 928.51 475.49 931.11 478.73 933.77
  Q 547.55 990.17 634.09 1011.47
  Q 634.15 1011.48 636.36 1012.11
  Q 638.55 1012.72 643.36 1013.68
  Q 667.47 1018.51 686.11 1020.69
  Q 689.43 1021.08 696.42 1021.36
  C 701.07 1021.55 705.96 1022.16 710.20 1022.29
  Q 741.96 1023.27 773.50 1019.24
  Q 778.39 1018.61 793.02 1015.81
  C 817.29 1011.16 841.01 1004.37 864.71 996.19
  C 871.51 993.85 870.52 989.71 870.44 982.73
  Q 870.33 973.26 870.27 963.79
  C 870.26 962.12 869.09 959.99 869.27 958.75
  Q 870.51 950.02 869.43 941.36
  C 868.59 934.67 868.50 929.78 868.47 923.79
  C 868.45 921.89 867.50 920.33 867.49 918.48
  Q 867.47 912.05 867.49 905.62
  C 867.50 902.84 866.33 900.74 866.36 898.16
  C 866.42 892.35 866.45 887.27 865.77 880.98
  Q 865.17 875.45 865.21 869.87
  Q 865.24 865.72 864.68 861.15
  Q 863.85 854.39 864.24 847.55
  C 864.37 845.37 863.14 843.74 863.10 841.64
  Q 863.01 836.01 863.02 830.38
  Q 863.04 826.63 862.33 820.66
  C 861.63 814.77 862.19 808.74 861.48 803.16
  C 861.04 799.71 860.48 796.52 860.57 792.94
  Q 860.77 784.54 859.48 776.22
  A 1.34 1.33 -73.1 0 0 859.06 775.43
  Q 857.07 773.55 855.44 773.54
  Q 769.39 773.01 558.36 773.58
  Q 557.84 773.58 557.47 773.93
  C 556.60 774.75 555.82 775.38 555.64 776.64
  Q 554.89 781.87 556.41 786.80
  Q 557.89 791.66 558.01 792.05
  Q 558.85 794.99 560.34 798.23
  Q 567.77 814.49 576.68 828.51
  Q 576.96 828.95 581.21 835.96
  Q 583.04 838.98 585.93 843.33
  Q 598.76 862.62 613.88 880.28
  A 2.38 2.38 0.0 0 1 614.36 882.48
  Q 614.08 883.45 613.17 883.44
  Q 612.62 883.43 611.94 882.90
  C 598.31 872.40 585.52 860.36 575.11 846.59
  Q 548.90 811.93 535.83 770.13
  Q 530.99 754.62 527.59 738.72
  C 527.36 737.64 527.68 736.26 526.76 734.99
  Q 526.46 734.58 526.43 734.07
  Q 526.35 732.52 526.32 731.00
  C 526.25 728.48 524.91 726.91 525.31 724.04
  A 1.58 1.54 -55.5 0 0 525.15 723.10
  C 523.47 719.89 524.38 715.91 523.68 712.55
  C 522.75 708.07 522.97 704.41 522.41 700.18
  C 521.46 693.04 521.79 685.81 521.69 678.62
  Q 521.65 675.66 524.61 675.66
  L 1109.21 675.80
  A 4.16 4.16 0.0 0 1 1113.37 679.96
  L 1113.37 771.31
  A 2.19 2.18 90.0 0 1 1111.19 773.50
  L 953.97 773.50
  Q 953.44 773.50 953.03 773.83
  C 951.11 775.35 949.85 776.85 949.64 779.45
  Q 949.20 784.64 949.92 789.75
  C 951.31 799.62 950.56 810.01 950.65 819.98
  C 950.67 822.41 951.45 824.58 951.51 827.01
  Q 951.72 836.70 951.78 846.39
  Q 951.81 851.63 952.60 860.56
  C 953.58 871.80 952.65 883.00 953.53 894.02
  C 954.28 903.37 954.17 911.27 954.31 919.99
  Q 954.32 920.50 954.57 920.95
  Q 955.39 922.38 955.34 924.37
  Q 955.08 936.90 955.11 956.50
  Q 955.12 964.10 954.54 976.49
  Q 953.89 990.30 954.26 1004.13
  C 954.38 1008.63 952.83 1012.92 952.95 1017.41
  Q 953.24 1028.89 953.08 1033.75
  C 953.02 1035.55 951.83 1037.33 951.80 1039.31
  C 951.74 1044.07 951.83 1048.14 951.14 1053.19
  C 950.36 1058.89 951.26 1064.55 950.06 1070.10
  C 949.17 1074.21 949.95 1078.00 948.93 1082.13
  C 948.09 1085.54 948.93 1088.70 948.03 1092.10
  C 946.72 1097.01 947.49 1101.59 946.62 1106.36
  Q 945.04 1115.04 945.26 1123.85
  Q 945.28 1124.36 945.03 1124.81
  C 943.30 1127.96 944.20 1130.49 943.38 1133.66
  C 942.44 1137.25 943.10 1140.28 942.07 1143.89
  Q 941.34 1146.43 941.80 1149.10
  A 1.53 1.53 0.0 0 1 941.61 1150.15
  Q 940.02 1152.95 940.70 1156.24
  Q 940.81 1156.77 940.57 1157.26
  Q 938.96 1160.56 939.63 1164.28
  A 1.59 1.55 -36.2 0 1 939.46 1165.29
  Q 937.85 1168.28 938.56 1171.65
  Q 938.67 1172.19 938.42 1172.68
  Q 936.79 1175.86 937.46 1179.49
  A 1.68 1.62 52.1 0 1 937.36 1180.43
  C 936.77 1181.82 936.14 1182.83 936.08 1184.42
  C 936.00 1186.74 934.97 1188.69 934.93 1190.84
  C 934.86 1194.45 933.31 1197.02 933.75 1200.81
  A 1.52 1.49 58.0 0 1 933.54 1201.77
  Q 932.24 1203.92 932.79 1206.47
  A 1.17 1.15 -36.1 0 1 932.65 1207.32
  Q 931.29 1209.57 931.58 1212.25
  A 1.57 1.54 -33.8 0 1 931.38 1213.21
  C 930.12 1215.47 930.62 1217.81 930.14 1219.91
  Q 928.95 1225.19 927.74 1230.46
  Q 927.42 1231.87 926.86 1237.13
  C 926.52 1240.30 925.21 1243.50 924.67 1246.30
  Q 923.04 1254.87 920.87 1263.29
  Q 920.49 1264.80 920.08 1266.29
  Q 917.78 1274.63 915.50 1282.97
  Q 908.50 1308.52 898.58 1333.10
  Q 888.14 1358.95 873.50 1382.62
  Q 871.83 1385.33 868.60 1389.67
  C 866.31 1392.75 864.20 1396.13 861.88 1398.93
  Q 853.49 1409.05 845.04 1416.80
  Q 837.20 1423.99 827.00 1429.38
  Q 825.05 1430.41 822.75 1430.40
  Q 790.81 1430.22 758.86 1430.62
  C 753.68 1430.68 746.81 1425.26 742.38 1422.25
  Q 737.74 1419.12 733.48 1415.31
  Q 720.94 1404.11 713.52 1395.50
  Q 707.92 1389.00 699.35 1377.11
  Q 693.34 1368.76 688.21 1360.51
  Q 668.75 1329.17 654.39 1296.09
  Q 627.60 1234.37 609.15 1168.42
  Q 608.54 1166.24 605.39 1156.18
  Q 603.48 1150.07 602.13 1143.79
  C 601.24 1139.67 600.79 1132.18 607.27 1134.22
  Q 612.12 1135.74 617.02 1137.03
  C 623.27 1138.68 623.26 1141.45 625.13 1146.63
  Q 656.20 1232.57 702.64 1311.14
  C 716.14 1334.00 732.36 1355.14 751.54 1373.09
  Q 754.74 1376.09 758.56 1378.68
  C 771.16 1387.23 786.51 1395.84 801.40 1385.65
  C 809.44 1380.14 814.55 1372.14 820.00 1363.94
  Q 822.40 1360.31 824.21 1356.90
  Q 837.65 1331.57 844.84 1303.74
  Q 844.89 1303.54 844.85 1303.22
  Q 844.77 1302.73 844.99 1302.30
  Q 845.66 1300.94 846.56 1297.50
  Q 849.58 1286.01 853.40 1265.41
  Q 854.58 1259.10 855.00 1255.53
  Q 855.14 1254.33 855.95 1251.10
  C 856.47 1249.03 856.15 1247.10 856.72 1245.01
  Q 857.71 1241.41 857.52 1237.67
  C 857.30 1233.30 859.35 1229.60 859.54 1225.25
  C 859.67 1222.39 860.55 1219.90 860.53 1217.18
  C 860.51 1215.25 860.44 1213.58 860.85 1211.65
  Q 862.62 1203.15 863.26 1194.50
  C 863.42 1192.25 864.22 1190.41 864.12 1188.15
  C 863.91 1183.86 865.14 1179.89 865.17 1175.77
  Q 865.19 1172.07 865.79 1168.42
  C 866.56 1163.72 866.03 1159.14 866.85 1154.44
  C 867.77 1149.18 867.26 1144.31 867.90 1139.13
  Q 868.57 1133.67 868.57 1130.31
  C 868.57 1119.30 870.02 1110.85 869.77 1101.03
  C 869.73 1099.66 870.26 1098.06 869.38 1096.39
  Z"
/>
<path fill="#fbfcf9" d="
  M 983.17 1002.00
  C 984.14 987.41 983.60 972.62 983.64 958.00
  C 983.65 954.24 985.04 950.74 985.06 947.29
  Q 985.15 935.00 985.07 922.72
  A 1.70 1.70 0.0 0 1 985.34 921.80
  C 986.21 920.48 987.05 919.12 988.17 917.99
  Q 995.54 910.50 1002.93 903.03
  C 1004.82 901.12 1005.98 898.83 1007.86 897.04
  Q 1014.09 891.10 1019.68 884.57
  C 1023.93 879.60 1028.26 874.72 1033.25 870.85
  Q 1033.69 870.51 1034.25 870.51
  L 1085.24 870.50
  A 0.84 0.83 -19.3 0 1 1085.89 870.81
  Q 1087.78 873.14 1087.16 875.88
  Q 1085.91 881.38 1083.37 886.96
  C 1081.29 891.53 1079.95 895.45 1077.80 899.45
  Q 1075.59 903.54 1071.30 912.04
  Q 1065.20 924.11 1054.37 940.70
  Q 1043.31 957.66 1027.47 977.05
  C 1026.60 978.11 1024.13 980.59 1022.82 982.50
  Q 1021.73 984.10 1021.03 984.89
  Q 1002.91 1005.69 987.86 1019.36
  Q 986.60 1020.50 984.55 1019.61
  Q 984.14 1019.43 983.93 1019.03
  C 981.78 1014.98 982.81 1007.38 983.17 1002.00
  Z
  M 997.09 910.15
  Q 992.26 915.02 987.69 919.76
  A 6.76 6.74 -23.2 0 0 985.81 924.43
  C 985.83 933.78 985.97 943.05 985.43 952.83
  Q 984.31 973.15 984.42 993.50
  C 984.46 1000.21 983.67 1007.15 983.39 1014.00
  Q 983.28 1016.80 984.93 1018.34
  A 2.17 2.17 0.0 0 0 987.94 1018.29
  Q 999.45 1006.91 1010.85 995.36
  Q 1017.20 988.92 1034.38 966.93
  Q 1059.53 934.73 1077.51 898.03
  Q 1079.81 893.34 1084.18 882.61
  C 1085.33 879.79 1087.49 874.53 1085.51 871.82
  A 0.94 0.91 71.7 0 0 1084.76 871.43
  Q 1060.11 871.45 1035.46 871.57
  C 1033.96 871.58 1032.12 872.48 1031.08 873.58
  Q 1018.55 886.80 1006.37 900.35
  Q 1002.04 905.17 997.09 910.15
  Z"
/>
<path fill="#6983f4" d="
  M 1006.37 900.35
  Q 1018.55 886.80 1031.08 873.58
  C 1032.12 872.48 1033.96 871.58 1035.46 871.57
  Q 1060.11 871.45 1084.76 871.43
  A 0.94 0.91 71.7 0 1 1085.51 871.82
  C 1087.49 874.53 1085.33 879.79 1084.18 882.61
  Q 1079.81 893.34 1077.51 898.03
  Q 1059.53 934.73 1034.38 966.93
  Q 1017.20 988.92 1010.85 995.36
  Q 999.45 1006.91 987.94 1018.29
  A 2.17 2.17 0.0 0 1 984.93 1018.34
  Q 983.28 1016.80 983.39 1014.00
  C 983.67 1007.15 984.46 1000.21 984.42 993.50
  Q 984.31 973.15 985.43 952.83
  C 985.97 943.05 985.83 933.78 985.81 924.43
  A 6.76 6.74 -23.2 0 1 987.69 919.76
  Q 992.26 915.02 997.09 910.15
  Q 1002.04 905.17 1006.37 900.35
  Z"
/>
</svg>
